<svg xmlns="http://www.w3.org/2000/svg" width="16" height="16" viewBox="0 0 16 16">
  <g id="Group_58" data-name="Group 58" transform="translate(-30 -668)">
    <rect id="Rectangle_15" data-name="Rectangle 15" width="16" height="16" rx="8" transform="translate(30 668)" fill="#343a40"/>
    <path id="Icon_awesome-dribbble" data-name="Icon awesome-dribbble" d="M4,.125A3.875,3.875,0,1,0,7.875,4,3.879,3.879,0,0,0,4,.125ZM6.562,1.912a3.294,3.294,0,0,1,.747,2.062A7.735,7.735,0,0,0,5,3.867c-.09-.219-.175-.412-.291-.65A4.409,4.409,0,0,0,6.562,1.912Zm-.368-.383a3.737,3.737,0,0,1-1.735,1.2A17.667,17.667,0,0,0,3.224.787,3.3,3.3,0,0,1,6.194,1.529Zm-3.6-.52A21.119,21.119,0,0,1,3.82,2.924a12.346,12.346,0,0,1-3.06.4A3.322,3.322,0,0,1,2.593,1.01Zm-1.9,3c0-.034,0-.068,0-.1a12.209,12.209,0,0,0,3.4-.471c.095.185.185.374.268.562A5.127,5.127,0,0,0,1.541,6.218,3.3,3.3,0,0,1,.69,4.005ZM1.968,6.616A4.655,4.655,0,0,1,4.587,4.542a13.758,13.758,0,0,1,.706,2.51,3.3,3.3,0,0,1-3.325-.436Zm3.881.133a14.286,14.286,0,0,0-.643-2.36,4.858,4.858,0,0,1,2.062.141A3.316,3.316,0,0,1,5.849,6.749Z" transform="translate(34 672)" fill="#fff"/>
  </g>
</svg>
