<svg xmlns="http://www.w3.org/2000/svg" width="16" height="16" viewBox="0 0 16 16">
  <g id="Group_1058" data-name="Group 1058" transform="translate(-30 -668)">
    <rect id="Rectangle_15" data-name="Rectangle 15" width="16" height="16" rx="8" transform="translate(30 668)" fill="#343a40"/>
    <path id="Icon_awesome-github" data-name="Icon awesome-github" d="M2.664,6.816c0,.032-.037.058-.084.058s-.09-.021-.09-.058.037-.058.084-.058S2.664,6.779,2.664,6.816Zm-.5-.072c-.011.032.021.069.069.079a.075.075,0,0,0,.1-.032c.01-.032-.021-.069-.069-.084A.082.082,0,0,0,2.165,6.743Zm.71-.027c-.047.011-.079.042-.074.079s.047.053.095.042.079-.042.074-.074S2.921,6.711,2.875,6.716ZM3.931.563A3.851,3.851,0,0,0,0,4.481,4.026,4.026,0,0,0,2.722,8.322c.206.037.278-.09.278-.194s0-.649,0-.986c0,0-1.124.241-1.36-.479,0,0-.183-.467-.446-.588,0,0-.368-.252.026-.247a.848.848,0,0,1,.62.414A.849.849,0,0,0,3,6.578a.893.893,0,0,1,.257-.541c-.9-.1-1.8-.23-1.8-1.774a1.217,1.217,0,0,1,.379-.946,1.517,1.517,0,0,1,.042-1.09c.336-.1,1.108.434,1.108.434A3.794,3.794,0,0,1,5,2.66s.772-.54,1.108-.434a1.517,1.517,0,0,1,.042,1.09,1.248,1.248,0,0,1,.414.946c0,1.55-.946,1.673-1.844,1.774A.95.95,0,0,1,5,6.782c0,.541,0,1.211,0,1.343,0,.1.074.231.278.194A3.989,3.989,0,0,0,7.965,4.481,3.938,3.938,0,0,0,3.931.563ZM1.561,6.1c-.021.016-.016.053.011.084s.063.037.084.016.016-.053-.011-.084S1.582,6.08,1.561,6.1Zm-.173-.13c-.011.021,0,.047.037.063a.048.048,0,0,0,.069-.011c.011-.021,0-.047-.037-.063S1.4,5.955,1.387,5.971Zm.52.572c-.026.021-.016.069.021.1s.084.042.1.016.011-.069-.021-.1S1.929,6.517,1.908,6.543Zm-.183-.236c-.026.016-.026.058,0,.095s.069.053.09.037a.073.073,0,0,0,0-.1C1.792,6.3,1.75,6.286,1.725,6.307Z" transform="translate(34.163 671.431)" fill="#fff"/>
  </g>
</svg>
