<svg id="Group_1057" data-name="Group 1057" xmlns="http://www.w3.org/2000/svg" xmlns:xlink="http://www.w3.org/1999/xlink" width="596" height="842" viewBox="0 0 596 842">
  <defs>
    <clipPath id="clip-path">
      <rect id="Rectangle_13" data-name="Rectangle 13" width="596" height="842" fill="#fff"/>
    </clipPath>
  </defs>
  <g id="Mask_Group_2" data-name="Mask Group 2" clip-path="url(#clip-path)">
    <rect id="Rectangle_9" data-name="Rectangle 9" width="596" height="842" fill="#e4e0dd" opacity="0.1"/>
    <g id="Group_56" data-name="Group 56" transform="translate(1747.265 6811.714)" opacity="0.26">
      <g id="Group_54" data-name="Group 54" transform="translate(-1804.365 -6630.505)">
        <path id="Path_34" data-name="Path 34" d="M-1474.93-6093.457a210.539,210.539,0,0,1-82.465-16.649,211.14,211.14,0,0,1-67.341-45.4,211.152,211.152,0,0,1-45.4-67.341,210.531,210.531,0,0,1-16.649-82.465,210.533,210.533,0,0,1,16.649-82.465,211.163,211.163,0,0,1,45.4-67.341,211.146,211.146,0,0,1,67.341-45.4,210.531,210.531,0,0,1,82.465-16.649,210.532,210.532,0,0,1,82.465,16.649,211.147,211.147,0,0,1,67.341,45.4,211.163,211.163,0,0,1,45.4,67.341,210.533,210.533,0,0,1,16.649,82.465,210.531,210.531,0,0,1-16.649,82.465,211.152,211.152,0,0,1-45.4,67.341,211.14,211.14,0,0,1-67.341,45.4A210.541,210.541,0,0,1-1474.93-6093.457Zm0-420.507c-115.05,0-208.65,93.6-208.65,208.65s93.6,208.65,208.65,208.65,208.65-93.6,208.65-208.65S-1359.88-6513.964-1474.93-6513.964Z" transform="translate(1686.787 6517.171)" fill="#e4e0dd"/>
      </g>
      <g id="Group_55" data-name="Group 55" transform="translate(-1859.879 -6684.015)">
        <path id="Path_35" data-name="Path 35" d="M-1503.37-6119.62h-356.509v-564.4h356.509Zm-353.3-3.208h350.094v-557.981h-350.094Z" transform="translate(1859.879 6684.015)" fill="#e4e0dd"/>
      </g>
    </g>
    <g id="Group_52" data-name="Group 52" transform="matrix(0.996, 0.087, -0.087, 0.996, -640.033, 5790.502)">
      <g id="Group_14" data-name="Group 14" transform="translate(230.352 -5157.468)">
        <g id="Group_11" data-name="Group 11" transform="translate(8.664 0)">
          <g id="Group_6" data-name="Group 6">
            <path id="Path_3" data-name="Path 3" d="M1584.363-4407.038a35.236,35.236,0,0,1-7.084-.722c-5.933-1.216-10.872-2.248-15.23-3.158-21.037-4.393-24.271-5.068-31.968-4.064l-.929.121.3-.887c2.945-8.64,4.575-11.435,4.817-11.828a87.165,87.165,0,0,1,15.545-23.03,66.663,66.663,0,0,1,20.343-14.985,56.737,56.737,0,0,1,29.512-4.937c19.614,1.828,35.918-.211,48.459-6.06,10.108-4.714,15.39-10.866,17.882-14.687l.657-1.056,1,.6q-.3.5-.667,1.073-1.2,1.934-2.408,3.878c-12.87,20.743-26.179,42.192-40.48,57.6-7.754,8.352-15.07,14.174-22.367,17.8a41.4,41.4,0,0,1-11.951,3.917A35.037,35.037,0,0,1,1584.363-4407.038Zm-48.886-9.5c5.333,0,11.337,1.254,26.81,4.485,4.357.91,9.294,1.941,15.225,3.157,14.8,3.034,29.767-3.857,45.745-21.068,13.522-14.566,26.19-34.626,38.44-54.351a47.984,47.984,0,0,1-13.074,8.79c-9.728,4.536-21.66,6.817-35.59,6.817q-6.453,0-13.47-.653c-23.12-2.154-39.338,9.434-48.874,19.533a85.7,85.7,0,0,0-15.363,22.754l-.02.049-.028.043c-.016.024-1.546,2.446-4.419,10.736A39.322,39.322,0,0,1,1535.477-4416.543Z" transform="translate(-1529.152 4492.329)" fill="#e4e0dd"/>
          </g>
          <g id="Group_7" data-name="Group 7" transform="translate(0.621 19.45)">
            <path id="Path_4" data-name="Path 4" d="M1653.945-4325.348c-1.069.9-2.151,1.794-3.236,2.68s-2.182,1.756-3.281,2.625q-3.3,2.606-6.66,5.129-6.725,5.043-13.674,9.787a249.631,249.631,0,0,1-28.913,17.21c-2.52,1.243-5.072,2.424-7.661,3.521s-5.216,2.117-7.9,2.992a66.75,66.75,0,0,1-8.18,2.163l-.521.1q-.259.053-.522.093l-1.048.168c-.174.03-.35.053-.526.074l-.527.067-1.049.129-4.161.492c-.347.042-.694.08-1.04.125l-1.036.152-2.072.306-1.036.153c-.345.053-.692.1-1.035.163l-2.062.366-2.062.365-2.048.434-1.025.217-.512.108-.256.054-.254.064-2.031.507-1.017.251c-.337.091-.67.192-1.006.288l-2.011.583-1.983.67-.5.168c-.164.061-.325.126-.488.188l-.976.378-.488.189c-.081.032-.164.062-.243.1l-.238.106-.955.428-.478.215c-.158.074-.311.158-.466.237l-.93.48c-.306.167-.6.352-.9.528s-.588.374-.878.57a8.122,8.122,0,0,0-1.587,1.359,8.137,8.137,0,0,1,1.535-1.431c.282-.208.558-.428.858-.611s.586-.388.887-.568l.918-.517c.154-.084.3-.175.461-.255l.473-.232.946-.465.237-.116c.079-.038.161-.07.241-.1l.484-.208.969-.415c.162-.069.322-.141.486-.205l.494-.183,1.977-.732,2.006-.645c.335-.105.668-.218,1-.319l1.015-.282,2.032-.559.254-.07.256-.061.513-.121,1.025-.241,2.051-.482,2.065-.414,2.066-.41c.344-.073.691-.122,1.037-.181l1.039-.17,2.078-.341,1.039-.17c.347-.051.7-.094,1.042-.143l4.173-.562,1.034-.14.514-.07c.171-.022.343-.046.513-.077l1.024-.174q.256-.042.511-.1l.51-.1a65.713,65.713,0,0,0,8.03-2.208c.661-.215,1.313-.459,1.97-.688s1.3-.486,1.957-.727c.647-.258,1.3-.507,1.942-.771l.966-.4.483-.2.48-.207c2.563-1.1,5.091-2.278,7.591-3.518,5.008-2.466,9.9-5.18,14.706-8.023s9.54-5.832,14.219-8.9c2.339-1.534,4.652-3.106,6.962-4.684s4.6-3.186,6.879-4.81,4.546-3.267,6.8-4.925q1.691-1.244,3.368-2.507T1653.945-4325.348Z" transform="translate(-1534.48 4325.348)" fill="#e4e0dd"/>
          </g>
          <g id="Group_8" data-name="Group 8" transform="translate(27.882 66.675)">
            <path id="Path_5" data-name="Path 5" d="M1768.528-3919.911q2.691.96,5.4,1.846t5.446,1.7l1.368.4,1.372.383c.913.264,1.835.493,2.754.732.23.059.459.121.69.177l.692.166,1.385.332c.461.111.927.2,1.391.3s.927.2,1.392.292l1.4.256c.466.084.931.179,1.4.238.938.13,1.873.289,2.816.363l1.412.141,1.421.084.711.041.711.023c.474.014.948.041,1.422.045l1.422.01c.474,0,.948-.021,1.422-.028.237,0,.474-.014.71-.027l.71-.037c.119-.007.237-.011.355-.02l.354-.031.708-.061c.237-.016.471-.053.707-.078s.472-.051.705-.09l.7-.111c.234-.037.465-.089.7-.133s.463-.1.694-.155.458-.121.687-.186a7.189,7.189,0,0,0,1.327-.511,7.259,7.259,0,0,1-1.3.595c-.226.078-.451.159-.681.222s-.458.139-.691.192a25.634,25.634,0,0,1-2.815.539,44.8,44.8,0,0,1-5.719.365c-.478.007-.955-.008-1.433-.012l-.716-.012-.715-.031-1.431-.065-1.431-.121c-.957-.063-1.9-.224-2.849-.35-.475-.058-.944-.151-1.415-.233l-1.411-.252a102.11,102.11,0,0,1-11.065-2.923c-.91-.285-1.812-.594-2.714-.9-.451-.155-.9-.318-1.348-.477s-.9-.318-1.344-.487C1772.051-3918.46,1770.275-3919.151,1768.528-3919.911Z" transform="translate(-1768.528 3919.911)" fill="#e4e0dd"/>
          </g>
          <g id="Group_9" data-name="Group 9" transform="translate(39.163 40.508)">
            <path id="Path_6" data-name="Path 6" d="M1865.378-4119.51c1.232-1.453,2.521-2.856,3.832-4.24.326-.348.658-.689.991-1.03s.663-.685,1-1.022c.675-.673,1.348-1.348,2.039-2.005a102.177,102.177,0,0,1,8.64-7.5l1.155-.849c.386-.282.766-.572,1.166-.834.8-.531,1.571-1.091,2.4-1.571l1.231-.74,1.256-.689.628-.344.638-.326c.427-.214.849-.438,1.281-.643a44.81,44.81,0,0,1,5.293-2.2,25.575,25.575,0,0,1,2.765-.758c.233-.055.469-.091.7-.132s.472-.071.709-.1a7.208,7.208,0,0,1,1.429-.04,7.249,7.249,0,0,0-1.416.126c-.234.043-.468.081-.7.137s-.463.1-.691.167-.459.119-.685.189l-.679.21c-.227.068-.448.154-.672.23s-.449.151-.669.241l-.663.257-.331.129c-.11.044-.218.092-.328.138l-.654.28c-.218.092-.436.186-.65.29-.428.2-.862.4-1.288.6l-1.272.637c-.423.213-.837.446-1.256.668l-.628.334-.619.351-1.238.7-1.205.749c-.813.482-1.583,1.038-2.367,1.568-.4.26-.771.551-1.152.832l-1.142.847c-.377.288-.747.584-1.121.876s-.75.581-1.115.884l-1.1.909-.548.455c-.183.152-.361.309-.541.462-.719.621-1.445,1.233-2.147,1.873l-1.063.95-1.051.963q-2.1,1.93-4.137,3.927T1865.378-4119.51Z" transform="translate(-1865.378 4144.557)" fill="#e4e0dd"/>
          </g>
          <g id="Group_10" data-name="Group 10" transform="translate(59.948 49.99)">
            <path id="Path_7" data-name="Path 7" d="M2043.82-4054.455c1.772-.035,3.542-.089,5.311-.176.442-.017.884-.043,1.326-.065s.884-.044,1.325-.075l1.324-.081,1.323-.1c3.527-.264,7.047-.625,10.528-1.214l1.3-.221c.435-.075.864-.173,1.3-.259l.647-.133c.216-.046.433-.084.646-.142l1.282-.317.642-.157.637-.179,1.275-.359,1.267-.388c.211-.064.423-.125.634-.193l.629-.207c1.677-.551,3.34-1.15,4.957-1.859.809-.353,1.608-.73,2.387-1.146.195-.1.385-.214.579-.321s.378-.228.568-.34a9.251,9.251,0,0,0,1.081-.767,12.728,12.728,0,0,1-2.148,1.569l-.575.337c-.192.112-.39.213-.585.32-.388.217-.79.407-1.187.608a47.685,47.685,0,0,1-4.93,2.03c-.833.31-1.683.569-2.528.846l-1.277.38-.639.19-.646.169-1.295.332c-.215.059-.434.1-.652.146l-.653.138c-.436.088-.87.19-1.308.268l-1.314.229-.658.111c-.219.037-.44.063-.66.1l-1.32.184c-.439.066-.882.11-1.323.162l-1.324.149-1.327.118c-.442.036-.884.083-1.327.11-.885.061-1.771.127-2.657.163-1.772.1-3.546.132-5.32.15S2045.591-4054.361,2043.82-4054.455Z" transform="translate(-2043.82 4063.15)" fill="#e4e0dd"/>
          </g>
        </g>
        <g id="Group_13" data-name="Group 13" transform="translate(0 75.909)">
          <g id="Group_12" data-name="Group 12">
            <path id="Path_8" data-name="Path 8" d="M1463.62-3840.214c-.543,1.613-1.152,3.2-1.807,4.773l-.111.264c.044-.1-.029.069-.031.072l-.068.159q-.136.319-.274.635-.264.606-.538,1.207c-.363.8-.733,1.6-1.095,2.4a86.959,86.959,0,0,0-3.687,9.483,46.672,46.672,0,0,0-1.222,4.526.594.594,0,0,0,.407.717.591.591,0,0,0,.717-.407,57.548,57.548,0,0,1,2.629-8.543q.457-1.2.948-2.387.119-.289.24-.577c-.044.106.029-.067.03-.071l.056-.132.146-.341q.261-.607.531-1.21c.718-1.606,1.475-3.194,2.165-4.814.761-1.788,1.468-3.6,2.088-5.44a.587.587,0,0,0-.407-.717.6.6,0,0,0-.717.407Z" transform="translate(-1454.773 3840.637)" fill="#e4e0dd"/>
          </g>
        </g>
      </g>
      <g id="Group_23" data-name="Group 23" transform="translate(199.748 -5058.958)">
        <g id="Group_20" data-name="Group 20" transform="translate(16.463 0)">
          <g id="Group_15" data-name="Group 15">
            <path id="Path_9" data-name="Path 9" d="M1405.364-3568.777q-1.7,0-3.366-.128a41.97,41.97,0,0,1-14.5-3.8c-6.6-3.064-12.084-5.637-16.924-7.907-23.384-10.966-26.979-12.651-36.271-13.611l-.932-.1.5-.793c5.868-9.336,8.534-12.115,8.895-12.474a104.515,104.515,0,0,1,24.519-22.589,79.943,79.943,0,0,1,27.882-11.862,68.025,68.025,0,0,1,35.795,2.4c22.436,7.573,42.074,9.706,58.371,6.34,13.147-2.716,21.042-8.458,25.023-12.243l1.06-1.053.83.817c-.321.333-.679.691-1.074,1.067l-3.888,3.866c-20.781,20.674-42.269,42.051-63.238,56.088-11.362,7.605-21.511,12.378-31.028,14.59A51.561,51.561,0,0,1,1405.364-3568.777Zm-70.013-26.506c8.856,1.018,13.47,3.182,35.715,13.614,4.84,2.269,10.325,4.841,16.92,7.9,16.5,7.665,35.933,3.751,59.408-11.963,20.076-13.439,40.68-33.687,60.678-53.572a56.974,56.974,0,0,1-18.507,7.138,79.741,79.741,0,0,1-16.147,1.571c-12.817,0-27.154-2.655-42.832-7.947-26.468-8.934-48.669.133-62.633,9.312a103.009,103.009,0,0,0-24.278,22.363l-.031.042-.037.036C1343.58-3606.761,1341.088-3604.326,1335.351-3595.283Z" transform="translate(-1333.369 3646.598)" fill="#e4e0dd"/>
          </g>
          <g id="Group_16" data-name="Group 16" transform="translate(0.813 17.82)">
            <path id="Path_10" data-name="Path 10" d="M1495.743-3493.607c-1.5.756-3.015,1.491-4.531,2.22s-3.041,1.439-4.568,2.146q-4.58,2.119-9.212,4.127-9.263,4.013-18.7,7.619a302.628,302.628,0,0,1-38.548,12.078c-3.287.755-6.594,1.428-9.922,2s-6.676,1.029-10.046,1.312a79.994,79.994,0,0,1-10.145.271l-.635-.026-.317-.013-.317-.022-1.269-.093c-.212-.013-.423-.035-.634-.059l-.633-.068-1.26-.138-5-.571c-.417-.046-.834-.1-1.251-.14l-1.254-.107-2.508-.213-1.254-.107c-.418-.033-.836-.078-1.255-.094l-2.512-.139-2.513-.139-2.515-.056-1.258-.028-.629-.014-.314-.006-.314,0-2.515.035-1.258.015c-.419.014-.837.042-1.256.062l-2.512.131-2.5.24-.626.06c-.208.026-.415.058-.622.086l-1.245.176-.623.088c-.1.016-.208.027-.311.046l-.308.06-1.234.24-.618.12c-.205.043-.407.1-.61.15l-1.219.308c-.1.023-.2.056-.3.087l-.3.094-.6.189c-.4.115-.79.278-1.182.428a9.773,9.773,0,0,0-2.227,1.158,9.8,9.8,0,0,1,2.193-1.239c.388-.164.772-.342,1.173-.471l.6-.211.3-.105c.1-.035.2-.072.3-.1l1.217-.346c.2-.056.405-.119.61-.168l.617-.139,1.234-.277.309-.069c.1-.022.207-.037.311-.055l.623-.106,1.247-.213c.208-.035.416-.073.624-.1l.628-.075,2.512-.3,2.522-.192c.421-.03.841-.068,1.262-.092l1.263-.045,2.528-.085.316-.01h.316l.632,0,1.264,0,2.529.009,2.526.093,2.527.1c.422.011.841.05,1.261.078l1.26.09,2.521.18,1.261.09c.42.037.838.083,1.257.124l5.029.505,1.248.124.621.061c.207.021.414.042.622.052l1.247.081.312.019.313.01.625.021a78.9,78.9,0,0,0,10.009-.349c.833-.068,1.664-.171,2.5-.257.416-.041.831-.1,1.246-.15l1.245-.157c.828-.121,1.658-.233,2.485-.363l1.24-.2.62-.1.619-.109c3.3-.571,6.585-1.251,9.852-2.008,6.538-1.5,13-3.317,19.415-5.312s12.765-4.182,19.079-6.479c3.157-1.15,6.3-2.349,9.43-3.561s6.255-2.461,9.365-3.735,6.211-2.572,9.3-3.9q2.318-.992,4.625-2.011C1492.678-3492.221,1494.215-3492.9,1495.743-3493.607Z" transform="translate(-1340.353 3493.607)" fill="#e4e0dd"/>
          </g>
          <g id="Group_17" data-name="Group 17" transform="translate(35.374 47.479)">
            <path id="Path_11" data-name="Path 11" d="M1637.061-3238.976c1.911,1.255,3.836,2.489,5.787,3.679s3.908,2.369,5.885,3.51,3.976,2.247,6,3.3,4.061,2.082,6.138,3.021,4.18,1.817,6.328,2.569c.267.1.538.185.808.274l.81.265,1.638.491.819.244.825.223.825.226c.275.073.549.155.827.218l1.662.4c.555.127,1.114.235,1.671.358.14.029.278.061.418.087l.42.076.841.15c.14.025.28.052.421.074l.423.061.846.122c.281.046.565.067.848.1s.566.07.85.089l.852.062c.284.021.569.022.854.034s.57.007.854.005.569-.018.854-.032a8.677,8.677,0,0,0,1.692-.238,8.75,8.75,0,0,1-1.684.326c-.285.026-.571.057-.858.065s-.573.032-.86.028-.574.009-.86,0l-.86-.03c-.287-.008-.572-.039-.859-.057s-.573-.035-.858-.07a54.238,54.238,0,0,1-6.777-1.172c-.281-.058-.557-.134-.836-.2l-.834-.21-.833-.213-.827-.236-1.653-.473-.822-.258c-.274-.088-.549-.171-.819-.268-2.175-.743-4.3-1.617-6.39-2.561a123.872,123.872,0,0,1-12.125-6.462C1644.579-3233.755,1640.752-3236.273,1637.061-3238.976Z" transform="translate(-1637.061 3238.976)" fill="#e4e0dd"/>
          </g>
          <g id="Group_18" data-name="Group 18" transform="translate(48.867 29.88)">
            <path id="Path_12" data-name="Path 12" d="M1752.907-3370.656c3.714-2.672,7.562-5.158,11.505-7.485a123.8,123.8,0,0,1,12.178-6.362c2.1-.926,4.23-1.782,6.411-2.508.271-.094.547-.175.822-.26l.824-.252,1.657-.459.829-.229.835-.206.836-.2c.279-.066.556-.14.837-.2a54.32,54.32,0,0,1,6.786-1.116c.285-.033.573-.041.858-.063s.572-.044.859-.05l.86-.023c.287-.008.574,0,.86.006s.573.02.859.035.572.044.857.073a8.7,8.7,0,0,1,1.681.341,8.666,8.666,0,0,0-1.69-.253c-.285-.016-.568-.039-.854-.039s-.57-.014-.855,0-.57.008-.854.027l-.853.055c-.284.016-.567.055-.851.082s-.567.052-.849.1l-.847.115-.423.057c-.141.02-.281.047-.421.07l-.842.144-.421.072c-.14.025-.279.056-.419.084-.558.118-1.118.222-1.674.344l-1.665.389c-.278.061-.552.14-.828.211l-.826.219-.827.216-.822.238-1.642.477-.812.259c-.271.087-.542.17-.81.267-2.154.734-4.268,1.587-6.349,2.516s-4.134,1.926-6.163,2.969-4.035,2.134-6.026,3.253-3.96,2.276-5.914,3.461S1754.829-3371.9,1752.907-3370.656Z" transform="translate(-1752.907 3390.069)" fill="#e4e0dd"/>
          </g>
          <g id="Group_19" data-name="Group 19" transform="translate(75.06 47.022)">
            <path id="Path_13" data-name="Path 13" d="M1977.773-3242.906q3.116.694,6.249,1.293c.521.1,1.045.2,1.567.3s1.045.2,1.569.284l1.57.276,1.573.257c4.194.677,8.41,1.234,12.643,1.51l1.587.1c.264.021.529.022.794.032l.794.024.794.024c.265.006.53.021.794.013l1.588-.017.794-.007.8-.034,1.59-.068,1.588-.1c.265-.018.53-.03.794-.052l.792-.069c2.113-.183,4.223-.43,6.309-.818.52-.1,1.044-.192,1.559-.315.258-.06.519-.112.775-.178l.771-.2c.256-.069.51-.146.765-.219s.5-.163.758-.244a11.153,11.153,0,0,0,1.472-.606,15.338,15.338,0,0,1-2.949,1.223l-.766.231c-.256.076-.515.139-.773.209-.514.144-1.036.252-1.556.376a57.855,57.855,0,0,1-6.322.99l-.8.087c-.265.028-.531.046-.8.07l-1.6.127-1.6.089-.8.045-.8.017-1.6.028c-.268.009-.534,0-.8-.01l-.8-.021-.8-.021c-.267-.009-.534-.009-.8-.029l-1.6-.1-.8-.052c-.266-.018-.531-.048-.8-.071l-1.593-.149c-.532-.044-1.06-.116-1.59-.176l-1.588-.191-1.583-.228c-.527-.079-1.056-.146-1.581-.237-1.051-.173-2.1-.338-3.151-.54-2.1-.372-4.182-.817-6.26-1.281S1979.819-3242.319,1977.773-3242.906Z" transform="translate(-1977.773 3242.906)" fill="#e4e0dd"/>
          </g>
        </g>
        <g id="Group_22" data-name="Group 22" transform="translate(0 50.855)">
          <g id="Group_21" data-name="Group 21">
            <path id="Path_14" data-name="Path 14" d="M1208.937-3209.711c-1.072,1.719-2.213,3.395-3.4,5.035q-.467.644-.945,1.281-.24.321-.483.639l-.245.32-.105.137-.07.091c-.018.024-.052.068-.014.019-.677.875-1.361,1.743-2.037,2.618q-1.919,2.485-3.7,5.071c-1.1,1.6-2.163,3.234-3.163,4.9-.864,1.441-1.687,2.91-2.424,4.421q-.122.25-.241.5a.6.6,0,0,0,.209.8.59.59,0,0,0,.8-.209c.7-1.484,1.487-2.925,2.317-4.338.972-1.654,2.006-3.271,3.082-4.859q1.749-2.582,3.644-5.062l.243-.317.105-.137.07-.091.015-.019q.247-.319.495-.636l.992-1.272c.676-.869,1.346-1.741,2-2.627,1.217-1.649,2.384-3.335,3.485-5.063q.194-.305.386-.612a.588.588,0,0,0-.209-.8.6.6,0,0,0-.8.209Z" transform="translate(-1192.034 3209.994)" fill="#e4e0dd"/>
          </g>
        </g>
      </g>
      <g id="Group_32" data-name="Group 32" transform="translate(68.93 -5172.365)">
        <g id="Group_29" data-name="Group 29" transform="translate(0 0)">
          <g id="Group_24" data-name="Group 24">
            <path id="Path_15" data-name="Path 15" d="M217.745-4501.695l-.9-.271c-8.943-2.7-12.909-2.536-38.714-1.451-5.341.224-11.4.479-18.665.758a41.961,41.961,0,0,1-14.846-2.093,49.607,49.607,0,0,1-13.362-6.965c-7.925-5.716-15.444-14.037-22.987-25.44-13.922-21.045-25.488-49.062-36.673-76.157q-1.049-2.541-2.093-5.068c-.219-.5-.411-.967-.579-1.4l1.081-.433.571,1.381c2.21,5.028,7.275,13.374,18.354,20.956,13.733,9.4,32.672,15.015,56.291,16.693a68.037,68.037,0,0,1,33.945,11.61,79.947,79.947,0,0,1,21.138,21.709,104.516,104.516,0,0,1,13.894,30.306c.194.47,1.58,4.063,3.387,14.941Zm-17.166-3.614c7,0,10.78.535,15.709,1.962-1.8-10.557-3.158-13.765-3.172-13.8l-.021-.047-.012-.052a103.022,103.022,0,0,0-13.759-30c-9.336-13.86-26.313-30.8-54.179-32.777-23.828-1.692-42.961-7.376-56.867-16.894a56.983,56.983,0,0,1-14.315-13.731c10.767,26.063,21.955,52.7,35.283,72.848,15.586,23.561,32,34.674,50.179,33.977,7.267-.279,13.32-.533,18.661-.758C188.5-4505.019,195.417-4505.309,200.579-4505.309Z" transform="translate(-68.93 4620.214)" fill="#e4e0dd"/>
          </g>
          <g id="Group_25" data-name="Group 25" transform="translate(18.035 26.416)">
            <path id="Path_16" data-name="Path 16" d="M223.761-4393.424q1.707,1.858,3.451,3.68t3.49,3.641q3.51,3.621,7.076,7.186t7.2,7.062c2.423,2.328,4.856,4.646,7.324,6.926,4.937,4.557,9.946,9.036,15.1,13.344s10.405,8.491,15.857,12.4c2.721,1.959,5.488,3.854,8.312,5.657l.529.339.534.332,1.067.662c.713.439,1.435.863,2.152,1.294l1.088.626c.363.208.723.421,1.091.62.734.4,1.461.816,2.2,1.2a78.82,78.82,0,0,0,9.1,4.188l.585.223.292.11.3.1,1.182.407c.2.071.4.132.594.192l.6.184,1.2.368,4.834,1.476c.4.124.806.243,1.208.372l1.2.4,2.4.808,1.2.4c.4.137.8.263,1.194.416l2.368.886,2.366.89,2.336.968,1.168.484.584.242.292.122.287.132,2.3,1.055,1.148.53c.379.185.752.381,1.128.572l2.252,1.151,2.2,1.248.55.313c.181.108.357.224.536.336l1.068.678.534.339c.088.057.179.111.266.171l.258.184,1.032.732.515.366c.17.125.331.261.5.391l.989.789c.084.064.161.136.239.207l.235.213.469.425c.32.274.605.586.9.887a9.827,9.827,0,0,1,1.545,1.99,9.785,9.785,0,0,0-1.608-1.928c-.3-.289-.6-.589-.926-.851l-.48-.406-.24-.2c-.08-.068-.159-.137-.245-.2l-1.006-.755c-.169-.125-.333-.254-.5-.374l-.523-.349-1.046-.7-.261-.174c-.088-.058-.18-.109-.269-.163l-.54-.322-1.08-.643c-.181-.106-.359-.216-.541-.32l-.554-.3-2.216-1.187-2.267-1.091c-.378-.18-.754-.367-1.135-.542l-1.155-.5-2.306-1-.288-.126-.293-.115-.586-.23-1.171-.46-2.342-.919-2.372-.842-2.371-.841c-.393-.147-.8-.267-1.194-.4l-1.2-.386-2.4-.772-1.2-.386c-.4-.122-.805-.235-1.208-.354l-4.835-1.405-1.216-.359-.61-.182c-.2-.06-.407-.121-.607-.19l-1.206-.4-.3-.1-.3-.11-.6-.221a80,80,0,0,1-9.253-4.167c-3-1.562-5.91-3.282-8.76-5.09s-5.641-3.707-8.381-5.672a302.723,302.723,0,0,1-30.894-26.027q-7.323-6.956-14.307-14.25-3.488-3.647-6.9-7.363-1.7-1.863-3.385-3.743T223.761-4393.424Z" transform="translate(-223.761 4393.424)" fill="#e4e0dd"/>
          </g>
          <g id="Group_26" data-name="Group 26" transform="translate(64.254 98.923)">
            <path id="Path_17" data-name="Path 17" d="M674.345-3769.427c-4.448,1.067-8.951,1.913-13.482,2.573a123.905,123.905,0,0,1-13.68,1.28c-2.292.063-4.59.049-6.883-.105-.287-.015-.573-.045-.859-.07l-.858-.079-1.708-.2-.854-.1-.851-.125-.85-.128c-.283-.044-.567-.081-.849-.135a54.3,54.3,0,0,1-6.7-1.536c-.276-.078-.546-.179-.818-.267s-.546-.176-.814-.279l-.8-.3c-.268-.1-.529-.221-.794-.331s-.523-.235-.782-.358-.513-.257-.766-.391a8.74,8.74,0,0,1-1.428-.952,8.688,8.688,0,0,0,1.468.874c.257.123.511.252.776.359s.522.229.79.326.53.208.8.3l.81.271c.269.093.546.164.818.247s.544.167.822.233l.827.214.414.107c.138.034.278.063.417.094l.834.186.417.093c.139.03.28.054.42.081.561.1,1.118.218,1.68.316l1.688.271c.281.049.564.079.847.118l.848.11.847.113.85.091,1.7.18.85.068c.283.021.566.048.851.059,2.271.136,4.551.146,6.829.074s4.555-.218,6.828-.415,4.543-.448,6.809-.731,4.527-.608,6.784-.965S672.1-3769.007,674.345-3769.427Z" transform="translate(-620.561 3770.939)" fill="#e4e0dd"/>
          </g>
          <g id="Group_27" data-name="Group 27" transform="translate(65.762 59.966)">
            <path id="Path_18" data-name="Path 18" d="M672.636-4068.46c-1.294-1.886-2.608-3.756-3.964-5.6s-2.72-3.671-4.119-5.476-2.829-3.584-4.3-5.328-2.971-3.464-4.538-5.119-3.182-3.265-4.885-4.773c-.209-.193-.428-.374-.644-.559l-.65-.553-1.331-1.074-.666-.536-.68-.519-.678-.521c-.227-.172-.449-.352-.682-.515l-1.386-1c-.466-.328-.943-.64-1.412-.964-.118-.079-.234-.162-.354-.239l-.361-.229-.721-.458c-.121-.076-.24-.154-.362-.228l-.368-.217-.736-.434c-.243-.148-.5-.275-.747-.415s-.5-.279-.753-.4l-.765-.38c-.255-.127-.518-.236-.778-.354s-.524-.222-.789-.328-.534-.2-.8-.294a8.714,8.714,0,0,0-1.656-.419,8.74,8.74,0,0,1,1.683.335c.274.083.55.163.818.264s.542.188.806.3.535.209.8.327l.785.354c.263.116.515.252.773.377s.517.249.767.389a54.39,54.39,0,0,1,5.829,3.65c.238.16.465.335.7.5l.692.51.691.513.676.531,1.351,1.064.663.55c.22.184.444.365.657.557,1.732,1.511,3.368,3.124,4.945,4.789a123.792,123.792,0,0,1,8.777,10.571C667.653-4076.138,670.243-4072.358,672.636-4068.46Z" transform="translate(-633.508 4105.392)" fill="#e4e0dd"/>
          </g>
          <g id="Group_28" data-name="Group 28" transform="translate(34.765 66.359)">
            <path id="Path_19" data-name="Path 19" d="M414.233-4032.178c-2.114-.249-4.219-.577-6.317-.941s-4.19-.769-6.269-1.236c-1.043-.217-2.078-.472-3.115-.718-.519-.119-1.033-.262-1.55-.392l-1.548-.4-1.538-.437c-.512-.149-1.027-.287-1.535-.451l-1.527-.478c-.254-.081-.51-.156-.763-.242l-.757-.261-1.511-.528c-.253-.084-.5-.187-.749-.282l-.747-.291-.747-.29c-.248-.1-.5-.188-.743-.3l-1.468-.645-.732-.325-.72-.35-1.439-.7-1.422-.733c-.236-.124-.474-.244-.708-.372l-.7-.387a57.9,57.9,0,0,1-5.449-3.354c-.431-.315-.871-.617-1.29-.948-.21-.164-.425-.322-.632-.491l-.617-.509a15.321,15.321,0,0,1-2.248-2.268,11.125,11.125,0,0,0,1.124,1.127c.2.172.4.351.605.517s.411.336.621.5l.635.479c.211.16.431.309.646.464.428.313.877.6,1.317.893,1.774,1.164,3.625,2.206,5.5,3.191l.7.37c.235.123.475.236.712.355l1.425.709,1.441.677.72.339.73.313,1.458.628c.241.11.491.2.738.294l.742.285.742.285c.248.093.493.195.745.277l1.5.519c4.011,1.38,8.115,2.495,12.245,3.49l1.55.37,1.555.351c.517.122,1.037.233,1.557.344s1.038.228,1.56.333Q411.09-4032.737,414.233-4032.178Z" transform="translate(-367.391 4050.506)" fill="#e4e0dd"/>
          </g>
        </g>
        <g id="Group_31" data-name="Group 31" transform="translate(147.698 116.794)">
          <g id="Group_30" data-name="Group 30">
            <path id="Path_20" data-name="Path 20" d="M1336.963-3616.773c.323,1.989.726,3.965,1.186,5.926.481,2.046,1.049,4.069,1.594,6.1s1.041,4.079,1.474,6.139c.4,1.911.754,3.834,1.036,5.767q.051.352.1.7l.006.044.02.148c.016.123.032.245.047.367q.081.643.15,1.289c.084.8.153,1.6.2,2.4q.016.279.028.558a.591.591,0,0,0,.582.582.591.591,0,0,0,.583-.582c-.074-1.687-.255-3.367-.482-5.04-.26-1.924-.595-3.838-.979-5.741q-.623-3.081-1.422-6.123c-.538-2.053-1.127-4.092-1.629-6.154-.482-1.98-.905-3.975-1.251-5.984q-.061-.353-.118-.706a.584.584,0,0,0-.716-.407.6.6,0,0,0-.407.716Z" transform="translate(-1336.952 3617.511)" fill="#e4e0dd"/>
          </g>
        </g>
      </g>
      <g id="Group_41" data-name="Group 41" transform="translate(187.039 -5245.157)">
        <g id="Group_38" data-name="Group 38" transform="translate(0 0)">
          <g id="Group_33" data-name="Group 33">
            <path id="Path_21" data-name="Path 21" d="M1140.152-5132.6l-.7-.626c-4.555-4.1-6.965-5.107-22.644-11.679-3.251-1.363-6.936-2.907-11.352-4.778a29.59,29.59,0,0,1-14.394-13.4c-3.14-5.653-5.3-12.749-6.614-21.693-2.415-16.48-1.467-36.454-.55-55.769q.086-1.809.171-3.61c.009-.361.026-.7.047-1l1.163.067q-.023.491-.046.983c-.089,3.6.593,9.955,5.055,17.542,5.545,9.426,15.25,18.062,28.845,25.664a45.049,45.049,0,0,1,17.08,16.513,52.906,52.906,0,0,1,6.558,18.951,69.181,69.181,0,0,1-.2,22.036c-.022.408-.23,3-2.171,9.9Zm-55.265-104.118c-.845,18.069-1.526,36.472.717,51.776,2.689,18.355,9.333,29.538,20.31,34.186,4.415,1.87,8.1,3.414,11.348,4.776,14.7,6.161,17.956,7.526,22.272,11.267,1.791-6.528,1.881-8.75,1.882-8.772l0-.051.01-.052a67.73,67.73,0,0,0,.191-21.705c-1.683-10.84-7.048-25.64-23.051-34.588-13.779-7.705-23.63-16.483-29.281-26.09A38.6,38.6,0,0,1,1084.886-5236.722Z" transform="translate(-1082.922 5245.157)" fill="#e4e0dd"/>
          </g>
          <g id="Group_34" data-name="Group 34" transform="translate(4.877 20.575)">
            <path id="Path_22" data-name="Path 22" d="M1124.8-5068.517q2.087,6.319,4.393,12.554,1.146,3.12,2.346,6.218c.8,2.064,1.611,4.126,2.452,6.174q.63,1.537,1.276,3.066c.431,1.019.86,2.039,1.3,3.054q1.319,3.046,2.721,6.054c1.865,4.011,3.834,7.973,5.993,11.825,1.073,1.929,2.189,3.833,3.367,5.7.29.47.6.926.894,1.39s.613.916.919,1.373.626.906.948,1.352.64.9.974,1.332a51.773,51.773,0,0,0,4.231,5.041c.192.2.376.4.574.587l.587.573c.194.192.4.37.6.556l.61.556,2.467,2.246.615.563.6.58,1.2,1.159.6.579c.2.194.4.382.595.585l1.161,1.2,1.158,1.2,1.119,1.24.559.619c.184.209.378.408.553.625l1.072,1.281.533.642c.173.218.34.441.51.662l1.015,1.326.957,1.37.239.342c.077.116.149.235.224.353l.443.709c.305.466.567.959.838,1.445l.2.365c.066.123.123.25.185.375l.364.752c.215.514.438,1.024.6,1.558a6.477,6.477,0,0,1,.35,1.625,6.431,6.431,0,0,0-.433-1.6c-.189-.52-.438-1.014-.677-1.511l-.394-.728c-.067-.121-.129-.244-.2-.363l-.217-.353c-.29-.47-.569-.946-.892-1.395l-.469-.682-.235-.34-.249-.331-1-1.322-1.054-1.278c-.177-.212-.349-.427-.528-.637l-.552-.618-1.1-1.238c-.179-.21-.378-.4-.567-.6l-.572-.6-1.144-1.2-1.184-1.16-1.183-1.16c-.194-.2-.4-.38-.6-.569l-.608-.563-1.216-1.126-.608-.563-.623-.547-2.5-2.183-.628-.555c-.208-.188-.425-.37-.626-.565l-.61-.581c-.206-.191-.4-.4-.6-.595a52.864,52.864,0,0,1-4.381-5.088c-1.359-1.775-2.617-3.622-3.816-5.5s-2.335-3.8-3.422-5.741c-2.158-3.9-4.137-7.885-5.976-11.933q-1.374-3.038-2.658-6.114-.323-.768-.638-1.54t-.627-1.543q-.619-1.547-1.217-3.1-2.4-6.213-4.494-12.539C1127.264-5059.992,1125.941-5064.23,1124.8-5068.517Z" transform="translate(-1124.795 5068.517)" fill="#e4e0dd"/>
          </g>
          <g id="Group_35" data-name="Group 35" transform="translate(12.146 76.801)">
            <path id="Path_23" data-name="Path 23" d="M1218.874-4569.828c-1.484-.275-2.955-.614-4.421-.976-.367-.088-.732-.185-1.1-.281s-.731-.189-1.095-.29c-.727-.2-1.455-.4-2.178-.625a78.869,78.869,0,0,1-8.54-3.05c-1.382-.62-2.76-1.255-4.081-2.008l-.989-.566-.962-.6-.481-.3-.472-.315c-.313-.214-.63-.419-.939-.64a35,35,0,0,1-3.56-2.823,20.065,20.065,0,0,1-1.587-1.627,8.224,8.224,0,0,1-1.277-1.869,5.734,5.734,0,0,0,.643.924c.121.144.238.29.367.426s.251.279.385.41.262.269.4.4l.41.385c.135.129.281.248.422.373s.28.25.427.366q.865.719,1.776,1.379c.307.216.608.439.917.653l.933.629c.312.208.633.4.949.605l.474.3.482.291.965.58.984.54c.648.373,1.328.689,2,1.024.333.172.679.318,1.02.473l1.026.46c.344.148.692.29,1.038.435s.691.293,1.041.428l1.051.405c.35.136.7.271,1.054.4.706.257,1.409.523,2.122.761l1.066.368,1.071.356q2.143.708,4.309,1.353C1215.97-4570.641,1217.42-4570.228,1218.874-4569.828Z" transform="translate(-1187.197 4585.801)" fill="#e4e0dd"/>
          </g>
          <g id="Group_36" data-name="Group 36" transform="translate(23.962 53.973)">
            <path id="Path_24" data-name="Path 24" d="M1301.646-4748.783c-.266-1.485-.544-2.966-.847-4.442s-.614-2.949-.953-4.415l-.256-1.1-.269-1.1c-.172-.732-.373-1.457-.564-2.184-.094-.364-.2-.726-.3-1.086l-.307-1.084c-.1-.361-.221-.717-.331-1.076s-.222-.717-.339-1.074l-.364-1.064c-.122-.354-.236-.712-.377-1.059-.273-.7-.525-1.4-.837-2.083l-.447-1.029-.49-1.014-.245-.507-.258-.5c-.172-.333-.337-.671-.516-1l-.541-.987c-.184-.326-.38-.647-.566-.972q-.575-.968-1.212-1.9c-.1-.158-.217-.306-.325-.459s-.216-.307-.332-.453l-.346-.443c-.116-.148-.24-.288-.359-.433s-.247-.282-.373-.421-.259-.271-.391-.4a5.725,5.725,0,0,0-.861-.726,8.231,8.231,0,0,1,1.744,1.443,20.2,20.2,0,0,1,1.475,1.73,34.983,34.983,0,0,1,2.485,3.8c.191.327.367.663.551.993l.271.5.257.506.512,1.014.473,1.036c.629,1.384,1.135,2.815,1.626,4.248a78.969,78.969,0,0,1,2.255,8.784c.153.74.287,1.483.422,2.226.066.372.125.744.188,1.117s.125.745.179,1.118C1301.3-4751.782,1301.507-4750.286,1301.646-4748.783Z" transform="translate(-1288.641 4781.79)" fill="#e4e0dd"/>
          </g>
          <g id="Group_37" data-name="Group 37" transform="translate(3.67 49.103)">
            <path id="Path_25" data-name="Path 25" d="M1137.252-4799.535c-1.2-.723-2.376-1.5-3.535-2.292s-2.3-1.616-3.415-2.473c-.564-.419-1.114-.859-1.665-1.3s-1.089-.891-1.633-1.337l-.8-.691c-.265-.232-.534-.459-.791-.7l-.78-.713c-.129-.12-.261-.236-.388-.358l-.38-.368-.755-.741c-.251-.248-.489-.51-.733-.763s-.491-.507-.724-.772l-.7-.8-.345-.4-.331-.412-.661-.824c-.427-.561-.863-1.113-1.266-1.692a37.076,37.076,0,0,1-2.292-3.55c-.167-.311-.342-.617-.5-.934-.078-.158-.161-.313-.236-.473l-.221-.48a9.944,9.944,0,0,1-.682-2,7.353,7.353,0,0,0,.369.982c.075.159.143.319.222.476s.155.313.236.467c.326.619.681,1.221,1.053,1.812.741,1.184,1.562,2.317,2.411,3.426l.319.416c.107.138.219.272.328.409l.653.819.672.805.336.4.348.39.694.78c.231.26.481.5.72.758s.479.506.729.75l.751.729c2,1.946,4.135,3.762,6.309,5.525S1134.985-4801.191,1137.252-4799.535Z" transform="translate(-1114.43 4823.6)" fill="#e4e0dd"/>
          </g>
        </g>
        <g id="Group_40" data-name="Group 40" transform="translate(51.734 110.781)">
          <g id="Group_39" data-name="Group 39">
            <path id="Path_26" data-name="Path 26" d="M1531.893-4293.658c-.366,1.286-.682,2.586-.958,3.895-.289,1.371-.518,2.752-.765,4.131a68.068,68.068,0,0,1-1.841,7.788,37.01,37.01,0,0,1-1.232,3.492.583.583,0,0,0,.407.716.6.6,0,0,0,.716-.407,45.491,45.491,0,0,0,2.113-6.727q.488-2,.862-4.019c.258-1.388.478-2.782.759-4.166.3-1.477.648-2.944,1.061-4.394a.589.589,0,0,0-.407-.716.594.594,0,0,0-.716.407Z" transform="translate(-1527.068 4294.081)" fill="#e4e0dd"/>
          </g>
        </g>
      </g>
      <g id="Group_50" data-name="Group 50" transform="translate(256.441 -5231.557)">
        <g id="Group_47" data-name="Group 47" transform="translate(6.71 0)">
          <g id="Group_42" data-name="Group 42">
            <path id="Path_27" data-name="Path 27" d="M1772.679-5080.348a21.935,21.935,0,0,1-6.644-1.026c-3.6-1.137-6.6-2.1-9.242-2.942-12.734-4.075-14.692-4.7-19.492-4.577l-.936.024.392-.851a42.418,42.418,0,0,1,3.767-7.053,54.656,54.656,0,0,1,11.17-13.326,41.785,41.785,0,0,1,13.657-8.021,35.6,35.6,0,0,1,18.737-1.163c12.008,2.393,22.214,2.185,30.333-.62a25.989,25.989,0,0,0,11.939-7.881l.475-.612.928.7c-.145.2-.307.405-.487.627l-1.743,2.249c-9.329,12.042-18.976,24.494-28.857,33.138-5.369,4.7-10.3,7.848-15.09,9.634A25.4,25.4,0,0,1,1772.679-5080.348Zm-34.412-9.723c4.363,0,7.141.889,18.88,4.645,2.643.845,5.639,1.8,9.239,2.941,8.907,2.813,18.564-.479,29.523-10.067,8.979-7.855,17.8-18.932,26.37-29.964a30.976,30.976,0,0,1-7.477,3.717,46.819,46.819,0,0,1-15.31,2.334,80.282,80.282,0,0,1-15.631-1.673c-14.122-2.814-24.874,3.3-31.407,8.924a53.12,53.12,0,0,0-10.932,13.044l-.025.046-.032.04a36.98,36.98,0,0,0-3.259,6.013Z" transform="translate(-1736.364 5128.393)" fill="#e4e0dd"/>
          </g>
          <g id="Group_43" data-name="Group 43" transform="translate(0.799 11.072)">
            <path id="Path_28" data-name="Path 28" d="M1821-5033.342c-2.863,2-5.815,3.881-8.793,5.712q-2.24,1.364-4.51,2.679c-1.513.878-3.042,1.728-4.577,2.566q-1.153.627-2.312,1.243c-.386.206-.775.407-1.164.607l-1.169.6q-2.342,1.188-4.717,2.313c-3.172,1.488-6.4,2.868-9.685,4.1-1.647.608-3.311,1.174-4.993,1.688s-3.382.977-5.109,1.344a41.922,41.922,0,0,1-5.24.8c-.441.042-.885.063-1.328.085-.221.014-.444.012-.667.018l-.661.01-2.609.023-.652.008-.651.024-1.3.049c-.434.02-.869.026-1.3.056l-1.3.085-1.3.084-1.3.127c-.432.045-.866.079-1.3.133l-1.291.174-.647.084c-.214.033-.428.072-.642.108l-1.285.22-1.273.275-.319.069-.315.082-.63.165c-.423.1-.834.24-1.248.37l-.311.1c-.1.034-.2.075-.3.113l-.609.23c-.4.172-.8.339-1.181.55a5.051,5.051,0,0,0-1.08.727,5.122,5.122,0,0,1,1.036-.8c.369-.238.763-.433,1.154-.634l.6-.269c.1-.044.2-.091.3-.132l.308-.117c.411-.155.819-.319,1.24-.444l.627-.2c.1-.033.209-.068.315-.1l.318-.084,1.273-.338,1.286-.282c.215-.046.429-.1.644-.139l.648-.115,1.3-.225c.433-.071.869-.121,1.3-.182l1.3-.175,1.308-.132,1.31-.129c.437-.041.875-.06,1.312-.09l1.313-.084.656-.041.657-.025,2.628-.092.648-.022c.214-.01.428-.01.642-.027.428-.029.856-.054,1.284-.1a40.848,40.848,0,0,0,5.1-.862,77.236,77.236,0,0,0,9.933-3.046c3.26-1.2,6.463-2.564,9.629-4.008q2.378-1.078,4.725-2.226c.784-.38,1.562-.771,2.342-1.159s1.558-.781,2.334-1.177c1.553-.792,3.091-1.611,4.631-2.43s3.069-1.658,4.593-2.506Q1816.5-5030.658,1821-5033.342Z" transform="translate(-1743.222 5033.342)" fill="#e4e0dd"/>
          </g>
          <g id="Group_44" data-name="Group 44" transform="translate(18.338 34.404)">
            <path id="Path_29" data-name="Path 29" d="M1893.8-4833.028c1.082.492,2.164.979,3.255,1.446s2.181.932,3.279,1.376l.824.331.827.322c.549.22,1.107.419,1.661.625s1.114.395,1.671.593,1.123.365,1.686.543l.849.25c.283.082.564.171.851.239.571.142,1.14.3,1.717.409l.863.181.873.148.437.073.438.063c.292.042.584.09.876.126l.879.1.881.082q.881.074,1.767.091.442.007.885,0l.442-.018c.148-.006.294-.021.442-.03s.294-.028.44-.045.292-.041.438-.063a4.555,4.555,0,0,0,.86-.216,6.389,6.389,0,0,1-1.718.483,15.719,15.719,0,0,1-1.784.177,27.135,27.135,0,0,1-3.581-.112c-.3-.024-.594-.062-.891-.094l-.445-.051-.443-.064-.886-.129-.884-.165c-1.179-.223-2.33-.547-3.477-.882-.568-.185-1.135-.369-1.7-.562l-.841-.3c-.281-.1-.562-.2-.837-.313-.554-.22-1.11-.433-1.658-.667l-.824-.345-.815-.364c-.545-.24-1.083-.493-1.621-.747l-.8-.391c-.267-.13-.534-.261-.8-.4C1895.871-4831.866,1894.819-4832.422,1893.8-4833.028Z" transform="translate(-1893.796 4833.028)" fill="#e4e0dd"/>
          </g>
          <g id="Group_45" data-name="Group 45" transform="translate(25.407 21.233)">
            <path id="Path_30" data-name="Path 30" d="M1954.486-4932.9c.842-.839,1.723-1.638,2.616-2.424.223-.2.449-.389.676-.582l.681-.577c.459-.379.918-.756,1.387-1.124l.7-.554.713-.537c.473-.362.959-.706,1.442-1.056.239-.177.487-.343.734-.51l.741-.5c.5-.327,1-.646,1.508-.965,1.029-.606,2.065-1.206,3.152-1.713l.816-.377.827-.343.413-.171.418-.16c.28-.1.558-.213.84-.311a27.21,27.21,0,0,1,3.442-.992,15.741,15.741,0,0,1,1.772-.27,6.441,6.441,0,0,1,1.784.044,4.516,4.516,0,0,0-.886,0c-.147.014-.294.024-.44.047s-.293.037-.438.065-.291.049-.435.079l-.433.092q-.431.1-.858.217-.853.235-1.69.525l-.834.3-.826.318c-.275.106-.545.226-.818.338l-.409.168-.405.179-.81.358-.792.389c-.532.248-1.044.542-1.563.82-.261.137-.512.292-.766.442l-.761.452c-.5.312-1,.623-1.5.943s-.987.65-1.473.987-.977.666-1.456,1.015l-.722.517-.717.524q-1.432,1.052-2.838,2.142C1956.342-4934.38,1955.413-4933.641,1954.486-4932.9Z" transform="translate(-1954.486 4946.103)" fill="#e4e0dd"/>
          </g>
          <g id="Group_46" data-name="Group 46" transform="translate(38.742 28.775)">
            <path id="Path_31" data-name="Path 31" d="M2068.971-4878.607q3.311.213,6.615.3c2.2.046,4.406.045,6.6-.1l.822-.051c.274-.018.546-.051.819-.076s.546-.048.817-.084l.813-.112.407-.054.406-.068.813-.136.81-.154c.271-.047.54-.1.808-.16,1.075-.226,2.146-.478,3.2-.8.526-.159,1.047-.334,1.56-.533.256-.1.509-.208.759-.324a5.762,5.762,0,0,0,.728-.391,7.7,7.7,0,0,1-1.421.862c-.5.245-1.014.455-1.532.656a28.431,28.431,0,0,1-3.187.973c-.537.143-1.081.253-1.624.373l-.818.157-.409.079-.413.065-.827.124c-.276.04-.553.062-.83.093s-.553.063-.831.083l-.832.059c-1.11.067-2.22.088-3.33.088-1.109-.02-2.218-.042-3.323-.119-1.106-.061-2.209-.167-3.31-.283S2070.06-4878.411,2068.971-4878.607Z" transform="translate(-2068.971 4881.353)" fill="#e4e0dd"/>
          </g>
        </g>
        <g id="Group_49" data-name="Group 49" transform="translate(0 38.162)">
          <g id="Group_48" data-name="Group 48">
            <path id="Path_32" data-name="Path 32" d="M1685.834-4800.486c-.439.959-.916,1.9-1.421,2.828-.528.969-1.1,1.914-1.655,2.867a53.521,53.521,0,0,0-2.889,5.63c-.4.926-.782,1.866-1.092,2.829a.588.588,0,0,0,.407.716.6.6,0,0,0,.716-.407q.187-.579.4-1.147.116-.308.24-.613c.038-.094.077-.188.116-.282l.073-.176c-.048.115.022-.051.035-.083.39-.913.814-1.812,1.262-2.7q.726-1.439,1.533-2.835c.551-.956,1.128-1.9,1.663-2.861.576-1.039,1.118-2.1,1.613-3.178a.6.6,0,0,0-.209-.8.589.589,0,0,0-.8.209Z" transform="translate(-1678.755 4800.767)" fill="#e4e0dd"/>
          </g>
        </g>
      </g>
      <g id="Group_51" data-name="Group 51" transform="translate(165 -5238.633)">
        <path id="Path_33" data-name="Path 33" d="M1018.885-5189.146a277.807,277.807,0,0,0-37.288,71.774l-1.617,4.8c-.066.2-.137.4-.2.6l-.186.605-.371,1.211-.743,2.421-.744,2.42c-.235.812-.455,1.626-.683,2.438-.45,1.627-.912,3.251-1.353,4.88l-1.224,4.913-.306,1.228-.153.614-.138.618-.548,2.471-.548,2.471-.274,1.235c-.094.411-.169.827-.254,1.24l-.5,2.482-.468,2.489q-.918,4.981-1.709,9.99c-.27,1.668-.514,3.341-.768,5.013s-.489,3.346-.718,5.022c-.94,6.7-1.794,13.422-2.675,20.146q-.667,5.042-1.375,10.083l-.364,2.521q-.181,1.26-.373,2.519l-.382,2.518-.4,2.517c-.549,3.353-1.12,6.7-1.766,10.043l-.237,1.253-.251,1.251-.507,2.5c-.36,1.663-.708,3.329-1.1,4.985l-.288,1.243-.145.622-.154.619-.615,2.479c-.208.825-.435,1.646-.651,2.47l-.328,1.235-.349,1.229c-.907,3.285-1.949,6.532-3.05,9.759l-.85,2.412c-.29.8-.6,1.6-.9,2.395l-.452,1.2-.482,1.185-.966,2.368c-.082.2-.159.4-.245.591l-.258.585-.516,1.169c-.347.779-.683,1.562-1.038,2.336l-1.1,2.31-.548,1.155c-.09.194-.185.384-.282.573l-.289.57c-.774,1.518-1.523,3.048-2.351,4.537l-1.215,2.247-1.269,2.216c-1.685,2.959-3.489,5.847-5.333,8.706-3.718,5.7-7.75,11.185-12.005,16.481-1.052,1.333-2.156,2.626-3.24,3.932-.539.656-1.1,1.294-1.655,1.936l-1.667,1.926-1.7,1.9-.85.948q-.423.475-.855.943-1.717,1.881-3.5,3.7c-1.187,1.215-2.4,2.409-3.64,3.566s-2.509,2.292-3.824,3.368-2.659,2.115-4.052,3.084-2.826,1.879-4.3,2.719q2.158-1.345,4.192-2.866c1.356-1.013,2.658-2.093,3.931-3.206s2.5-2.273,3.706-3.459,2.372-2.409,3.519-3.651c4.57-4.985,8.915-10.187,13.034-15.546l1.542-2.012,1.506-2.038.752-1.02.376-.511.366-.517,1.462-2.07.73-1.035.71-1.049,1.42-2.1c.24-.347.466-.7.7-1.058l.687-1.063c.456-.71.922-1.415,1.368-2.13,1.777-2.87,3.527-5.756,5.151-8.712l1.224-2.213,1.17-2.242c.8-1.486,1.522-3.008,2.268-4.519l.279-.566c.094-.188.186-.378.272-.57l.527-1.148,1.055-2.3c.342-.77.664-1.548,1-2.321l.5-1.162.248-.581c.082-.193.156-.392.234-.586,1.253-3.126,2.454-6.272,3.509-9.471s2.054-6.417,2.933-9.67l.337-1.218.316-1.224c.209-.817.427-1.63.628-2.449l.592-2.459.148-.614.139-.617.277-1.234c.38-1.643.713-3.3,1.065-4.947l.493-2.483.244-1.242.231-1.245c.627-3.317,1.182-6.65,1.714-9.988s1.021-6.684,1.5-10.033.917-6.707,1.36-10.064c.892-6.716,1.749-13.442,2.71-20.162.236-1.681.492-3.359.74-5.038s.514-3.357.792-5.033.558-3.352.846-5.026c.143-.838.3-1.673.453-2.509l.23-1.254.242-1.253.488-2.5.518-2.5c.089-.416.167-.834.265-1.248l.285-1.244.569-2.488.569-2.488.143-.622.16-.618.32-1.235,1.281-4.939c.46-1.638.94-3.27,1.41-4.9.238-.816.468-1.635.712-2.449l.776-2.431.777-2.429.389-1.215.194-.607c.065-.2.139-.4.208-.6l1.686-4.815c2.324-6.39,4.814-12.722,7.641-18.9l1.041-2.326c.169-.39.355-.772.54-1.155l.552-1.148,2.209-4.593,2.333-4.53.584-1.133.292-.565c.1-.188.194-.378.3-.562l1.23-2.23,1.233-2.229.616-1.114.308-.557.323-.549,2.584-4.389.646-1.1c.214-.366.447-.722.67-1.082l1.351-2.158,1.352-2.156c.227-.357.449-.72.681-1.074l.707-1.059,2.828-4.23.353-.529c.117-.177.244-.347.365-.521l.736-1.037,1.472-2.075,1.475-2.071c.241-.348.5-.681.758-1.021l.766-1.015Z" transform="translate(-893.71 5189.146)" fill="#e4e0dd"/>
      </g>
    </g>
    <g id="Group_53" data-name="Group 53" transform="translate(-9.352 188.683) rotate(-114)">
      <g id="Group_14-2" data-name="Group 14" transform="translate(80.711 55.121)">
        <g id="Group_11-2" data-name="Group 11" transform="translate(4.332 7.644)">
          <g id="Group_6-2" data-name="Group 6" transform="translate(0 0)">
            <path id="Path_3-2" data-name="Path 3" d="M27.605,0a17.618,17.618,0,0,0-3.542.361C21.1.97,18.627,1.485,16.448,1.94,5.93,4.137,4.313,4.475.464,3.972L0,3.912l.151.443A33.248,33.248,0,0,0,2.56,10.269a43.583,43.583,0,0,0,7.772,11.515A33.331,33.331,0,0,0,20.5,29.277,28.369,28.369,0,0,0,35.26,31.745c9.807-.914,17.959.106,24.23,3.03a21.019,21.019,0,0,1,8.941,7.343l.328.528.5-.3q-.148-.25-.333-.536l-1.2-1.939c-6.435-10.372-13.09-21.1-20.24-28.8A39.9,39.9,0,0,0,36.3,2.171,20.7,20.7,0,0,0,30.321.213,17.519,17.519,0,0,0,27.605,0ZM3.162,4.753c2.666,0,5.668-.627,13.405-2.242,2.178-.455,4.647-.97,7.613-1.578,7.4-1.517,14.884,1.928,22.873,10.534,6.761,7.283,13.1,17.313,19.22,27.175a23.992,23.992,0,0,0-6.537-4.4c-4.864-2.268-10.83-3.408-17.8-3.408q-3.227,0-6.735.327c-11.56,1.077-19.669-4.717-24.437-9.766A42.85,42.85,0,0,1,3.087,10.021L3.077,10l-.014-.021A30.5,30.5,0,0,1,.853,4.607,19.661,19.661,0,0,0,3.162,4.753Z" transform="translate(0 0)" fill="#e4e0dd"/>
          </g>
          <g id="Group_7-2" data-name="Group 7" transform="translate(0.31 4.43)">
            <path id="Path_4-2" data-name="Path 4" d="M59.733,28.49c-.535-.452-1.075-.9-1.618-1.34s-1.091-.878-1.641-1.313q-1.649-1.3-3.33-2.564-3.363-2.522-6.837-4.894A124.816,124.816,0,0,0,31.851,9.774c-1.26-.622-2.536-1.212-3.831-1.761s-2.608-1.058-3.948-1.5a33.375,33.375,0,0,0-4.09-1.081l-.26-.05q-.13-.026-.261-.046l-.524-.084c-.087-.015-.175-.026-.263-.037l-.264-.033-.524-.064-2.081-.246c-.173-.021-.347-.04-.52-.062l-.518-.076-1.036-.153-.518-.076c-.173-.026-.346-.048-.517-.081l-1.031-.183L10.633,4.06,9.609,3.843,9.1,3.735l-.256-.054-.128-.027-.127-.032L7.57,3.368l-.508-.125c-.168-.045-.335-.1-.5-.144L5.554,2.807l-.991-.335-.248-.084c-.082-.03-.162-.063-.244-.094L3.583,2.1,3.339,2.01c-.041-.016-.082-.031-.122-.048L3.1,1.909l-.477-.214-.239-.107c-.079-.037-.155-.079-.233-.119l-.465-.24c-.153-.083-.3-.176-.452-.264S.938.778.793.68A4.061,4.061,0,0,1,0,0,4.068,4.068,0,0,0,.767.715c.141.1.279.214.429.305s.293.194.444.284l.459.259c.077.042.152.088.231.127l.236.116.473.232.118.058c.04.019.08.035.121.052l.242.1.484.208c.081.034.161.07.243.1l.247.091.988.366,1,.323c.167.053.334.109.5.159l.507.141,1.016.28.127.035.128.03.256.06.513.12,1.025.241,1.032.207,1.033.205c.172.036.346.061.518.09L13.664,5l1.039.171.52.085c.173.026.348.047.521.071l2.086.281.517.07.257.035c.086.011.171.023.257.039l.512.087q.128.021.255.048l.255.052a32.857,32.857,0,0,1,4.015,1.1c.331.108.657.229.985.344s.652.243.979.364.649.254.971.386l.483.2.241.1.24.1c1.281.548,2.545,1.139,3.8,1.759,2.5,1.233,4.948,2.59,7.353,4.011s4.77,2.916,7.11,4.448c1.169.767,2.326,1.553,3.481,2.342s2.3,1.593,3.44,2.4,2.273,1.633,3.4,2.463q.846.622,1.684,1.254T59.733,28.49Z" transform="translate(0)" fill="#e4e0dd"/>
          </g>
          <g id="Group_8-2" data-name="Group 8" transform="translate(13.941 5.319)">
            <path id="Path_5-2" data-name="Path 5" d="M0,3.989q1.345-.48,2.7-.923t2.723-.849l.684-.2.686-.192c.456-.132.917-.246,1.377-.366.115-.029.23-.061.345-.089l.346-.083.692-.166c.231-.055.464-.1.7-.15s.464-.1.7-.146l.7-.128c.233-.042.466-.089.7-.119.469-.065.937-.145,1.408-.181l.706-.07.71-.042.355-.021.355-.012c.237-.007.474-.021.711-.023l.711,0c.237,0,.474.011.711.014.119,0,.237.007.355.013l.355.019c.059,0,.119.005.178.01L19.08.3l.354.031c.118.008.235.026.353.039s.236.026.353.045l.351.056c.117.018.233.045.349.066s.231.05.347.078.229.06.343.093a3.594,3.594,0,0,1,.664.255,3.63,3.63,0,0,0-.65-.3C21.432.622,21.319.581,21.2.55s-.229-.069-.345-.1a12.817,12.817,0,0,0-1.408-.27A22.4,22.4,0,0,0,16.591,0c-.239,0-.477,0-.716.006l-.358.006-.358.016-.716.032-.716.06c-.479.032-.95.112-1.425.175-.238.029-.472.076-.707.117L10.89.539A51.083,51.083,0,0,0,5.358,2c-.455.143-.906.3-1.357.45-.225.077-.449.159-.674.238s-.449.159-.672.243C1.762,3.263.873,3.609,0,3.989Z" transform="translate(0 0)" fill="#e4e0dd"/>
          </g>
          <g id="Group_9-2" data-name="Group 9" transform="translate(19.582 9.868)">
            <path id="Path_6-2" data-name="Path 6" d="M0,0c.616.726,1.261,1.428,1.916,2.12.163.174.329.344.5.515s.332.342.5.511c.338.336.674.674,1.019,1A51.089,51.089,0,0,0,8.251,7.9l.578.425c.193.141.383.286.583.417.4.265.786.546,1.2.785l.615.37.628.345.314.172.319.163c.214.107.424.219.64.321A22.4,22.4,0,0,0,15.776,12a12.787,12.787,0,0,0,1.382.379c.116.028.235.046.352.066s.236.036.355.051a3.6,3.6,0,0,0,.714.02,3.625,3.625,0,0,1-.708-.063c-.117-.022-.234-.04-.349-.069s-.232-.05-.346-.083-.229-.06-.343-.094l-.34-.1c-.113-.034-.224-.077-.336-.115s-.224-.076-.334-.121l-.331-.129-.166-.064c-.055-.022-.109-.046-.164-.069l-.327-.14c-.109-.046-.218-.093-.325-.145-.214-.1-.431-.2-.644-.3l-.636-.318c-.212-.107-.419-.223-.628-.334l-.314-.167-.31-.175-.619-.351-.6-.375c-.407-.241-.791-.519-1.184-.784-.2-.13-.385-.275-.576-.416L8.427,7.67c-.188-.144-.374-.292-.561-.438s-.375-.29-.558-.442l-.548-.455-.274-.227c-.091-.076-.18-.155-.271-.231-.359-.311-.722-.616-1.074-.937l-.531-.475-.525-.481Q3.036,3.02,2.017,2.021T0,0Z" transform="translate(0 0)" fill="#e4e0dd"/>
          </g>
          <g id="Group_10-2" data-name="Group 10" transform="translate(29.974 13.247)">
            <path id="Path_7-2" data-name="Path 7" d="M0,.055C.886.072,1.771.1,2.655.143c.221.008.442.022.663.032S3.76.2,3.981.213l.662.041L5.3.3c1.763.132,3.524.312,5.264.607l.652.111c.217.037.432.087.648.129l.324.066c.108.023.217.042.323.071l.641.158.321.079.319.09.638.179.633.194c.105.032.212.063.317.1l.314.1c.839.275,1.67.575,2.478.93.4.177.8.365,1.194.573.1.052.193.107.29.161s.189.114.284.17a4.626,4.626,0,0,1,.54.384,6.364,6.364,0,0,0-1.074-.785l-.288-.168c-.1-.056-.2-.106-.293-.16-.194-.108-.4-.2-.594-.3A23.843,23.843,0,0,0,15.772,1.97c-.417-.155-.842-.285-1.264-.423l-.638-.19-.319-.1-.323-.084-.647-.166c-.108-.029-.217-.049-.326-.073L11.927.87c-.218-.044-.435-.095-.654-.134L10.617.621,10.288.566c-.11-.018-.22-.031-.33-.048L9.3.426C9.078.393,8.857.371,8.636.345L7.974.27,7.311.212C7.09.194,6.869.17,6.647.157,6.2.126,5.762.093,5.319.075,4.433.026,3.546.009,2.659,0S.885.008,0,.055Z" transform="translate(0 0)" fill="#e4e0dd"/>
          </g>
        </g>
        <g id="Group_13-2" data-name="Group 13" transform="translate(0 0)">
          <g id="Group_12-2" data-name="Group 12">
            <path id="Path_8-2" data-name="Path 8" d="M4.424,12.123c-.272-.806-.576-1.6-.9-2.386L3.465,9.6l-.015-.036L3.416,9.49q-.068-.159-.137-.318-.132-.3-.269-.6c-.181-.4-.366-.8-.547-1.2A43.48,43.48,0,0,1,.618,2.629,23.354,23.354,0,0,1,.007.366.3.3,0,0,1,.21.008a.3.3,0,0,1,.358.2A28.782,28.782,0,0,0,1.883,4.482q.228.6.474,1.193l.12.288L2.492,6l.028.066.073.171q.131.3.265.605c.359.8.738,1.6,1.082,2.407.38.894.734,1.8,1.044,2.72a.294.294,0,0,1-.2.358.3.3,0,0,1-.358-.2Z" transform="translate(0 0)" fill="#e4e0dd"/>
          </g>
        </g>
      </g>
      <g id="Group_23-2" data-name="Group 23" transform="translate(65.41 17.245)">
        <g id="Group_20-2" data-name="Group 20" transform="translate(8.231 0)">
          <g id="Group_15-2" data-name="Group 15" transform="translate(0 0)">
            <path id="Path_9-2" data-name="Path 9" d="M36,0q-.852,0-1.683.064a20.985,20.985,0,0,0-7.251,1.9C23.765,3.5,21.022,4.784,18.6,5.919,6.909,11.4,5.112,12.245.466,12.725L0,12.773l.249.4A39.657,39.657,0,0,0,4.7,19.406,52.258,52.258,0,0,0,16.956,30.7,39.972,39.972,0,0,0,30.9,36.632a34.013,34.013,0,0,0,17.9-1.2c11.218-3.787,21.037-4.853,29.186-3.17a25.3,25.3,0,0,1,12.511,6.122l.53.526.415-.408c-.161-.167-.339-.345-.537-.533l-1.944-1.933C78.565,25.7,67.821,15.01,57.337,7.992,51.656,4.189,46.581,1.8,41.823.7A25.781,25.781,0,0,0,36,0ZM.991,13.253c4.428-.509,6.735-1.591,17.858-6.807,2.42-1.135,5.162-2.421,8.46-3.952,8.25-3.832,17.966-1.875,29.7,5.982,10.038,6.72,20.34,16.844,30.339,26.786A28.487,28.487,0,0,0,78.1,31.693a39.871,39.871,0,0,0-8.074-.785,67.716,67.716,0,0,0-21.416,3.974c-13.234,4.467-24.335-.066-31.317-4.656A51.5,51.5,0,0,1,5.152,19.043l-.016-.021L5.118,19A36.958,36.958,0,0,1,.991,13.253Z" transform="translate(0 0)" fill="#e4e0dd"/>
          </g>
          <g id="Group_16-2" data-name="Group 16" transform="translate(0.407 13.245)">
            <path id="Path_10-2" data-name="Path 10" d="M77.7,16.755c-.751-.378-1.508-.746-2.266-1.11s-1.52-.719-2.284-1.073q-2.29-1.059-4.606-2.063Q63.909,10.5,59.19,8.7A151.315,151.315,0,0,0,39.916,2.661c-1.643-.378-3.3-.714-4.961-1s-3.338-.515-5.023-.656A40,40,0,0,0,24.859.871l-.318.013-.159.007L24.224.9,23.59.949c-.106.006-.211.017-.317.029l-.317.034-.63.069-2.5.286c-.208.023-.417.049-.625.07l-.627.053L17.319,1.6l-.627.053c-.209.017-.418.039-.627.047l-1.256.07-1.256.07-1.258.028-.629.014-.315.007-.157,0-.157,0L9.779,1.869,9.15,1.861c-.209-.007-.419-.021-.628-.031L7.266,1.765l-1.252-.12L5.7,1.615c-.1-.013-.207-.029-.311-.043l-.623-.088L4.456,1.44c-.052-.008-.1-.013-.156-.023l-.154-.03-.617-.12-.309-.06c-.1-.022-.2-.05-.305-.075L2.306.978C2.254.967,2.2.95,2.155.934L2,.887,1.7.793C1.5.735,1.31.654,1.114.579A4.887,4.887,0,0,1,0,0,4.9,4.9,0,0,0,1.1.62c.194.082.386.171.587.236l.3.105.149.053c.05.018.1.036.15.049l.608.173c.1.028.2.06.3.084l.308.069.617.138.154.035c.052.011.1.018.156.028l.312.053.624.107c.1.017.208.037.312.052l.314.038,1.256.151,1.261.1c.21.015.42.034.631.046l.632.023,1.264.043.158.005h.474l.632,0,1.265,0,1.263-.046L16.089,2.1c.211-.005.42-.025.631-.039l.63-.045,1.261-.09.63-.045c.21-.018.419-.041.629-.062l2.515-.253.624-.062.311-.031c.1-.011.207-.021.311-.026l.624-.04.156-.01.156-.005.313-.01a39.448,39.448,0,0,1,5,.175c.417.034.832.086,1.248.129.208.021.415.05.623.075l.623.079c.414.06.829.117,1.243.181l.62.1.31.05.309.054c1.651.286,3.293.626,4.926,1,3.269.749,6.5,1.659,9.708,2.656s6.382,2.091,9.539,3.24C60.61,9.7,62.18,10.3,63.747,10.9s3.127,1.231,4.683,1.867,3.106,1.286,4.651,1.948q1.159.5,2.313,1.006C76.163,16.063,76.931,16.4,77.7,16.755Z" transform="translate(0 0)" fill="#e4e0dd"/>
          </g>
          <g id="Group_17-2" data-name="Group 17" transform="translate(17.687 5.272)">
            <path id="Path_11-2" data-name="Path 11" d="M0,9.9c.956-.628,1.918-1.245,2.893-1.84S4.847,6.875,5.836,6.3s1.988-1.124,3-1.652,2.031-1.041,3.069-1.51,2.09-.909,3.164-1.284c.133-.05.269-.092.4-.137l.405-.133.819-.245.41-.122.413-.111L17.931,1c.138-.036.274-.077.413-.109l.831-.2c.278-.063.557-.118.836-.179.07-.014.139-.031.209-.043l.21-.038.421-.075c.07-.012.14-.026.21-.037l.211-.03L21.7.223c.141-.023.283-.034.424-.051s.283-.035.425-.044L22.971.1c.142-.011.284-.011.427-.017s.285,0,.427,0,.285.009.427.016A4.339,4.339,0,0,1,25.1.212a4.375,4.375,0,0,0-.842-.163c-.143-.013-.285-.029-.429-.033S23.541,0,23.4,0s-.287,0-.43,0l-.43.015c-.143,0-.286.019-.429.028s-.287.018-.429.035a27.119,27.119,0,0,0-3.388.586c-.141.029-.279.067-.418.1l-.417.1L17.039.98l-.413.118-.827.237-.411.129c-.137.044-.275.085-.41.134-1.087.372-2.15.809-3.195,1.281A61.936,61.936,0,0,0,5.721,6.109C3.759,7.289,1.846,8.548,0,9.9Z" transform="translate(0 0)" fill="#e4e0dd"/>
          </g>
          <g id="Group_18-2" data-name="Group 18" transform="translate(24.434 14.264)">
            <path id="Path_12-2" data-name="Path 12" d="M0,0C1.857,1.336,3.781,2.579,5.753,3.742a61.9,61.9,0,0,0,6.089,3.181c1.049.463,2.115.891,3.205,1.254.136.047.274.088.411.13l.412.126.828.23.414.114.417.1.418.1c.139.033.278.07.419.1a27.16,27.16,0,0,0,3.393.558c.142.016.286.021.429.031s.286.022.429.025l.43.011c.143,0,.287,0,.43,0s.287-.01.43-.018.286-.022.428-.036a4.348,4.348,0,0,0,.841-.17,4.333,4.333,0,0,1-.845.127c-.142.008-.284.02-.427.019s-.285.007-.427,0-.285,0-.427-.014l-.426-.028c-.142-.008-.284-.028-.425-.041s-.284-.026-.425-.048l-.423-.058-.212-.029c-.07-.01-.14-.023-.211-.035L20.508,9.3,20.3,9.267c-.07-.012-.14-.028-.21-.042-.279-.059-.559-.111-.837-.172l-.832-.194c-.139-.03-.276-.07-.414-.106l-.413-.109-.414-.108-.411-.119-.821-.238-.406-.129c-.135-.044-.271-.085-.4-.134C14.058,7.549,13,7.122,11.96,6.657S9.893,5.694,8.878,5.173,6.861,4.106,5.866,3.546s-1.98-1.138-2.957-1.73S.961.62,0,0Z" fill="#e4e0dd"/>
          </g>
          <g id="Group_19-2" data-name="Group 19" transform="translate(37.53 13.061)">
            <path id="Path_13-2" data-name="Path 13" d="M0,2.338q1.558-.347,3.124-.647c.26-.052.522-.1.783-.148s.522-.1.785-.142l.785-.138.787-.129C8.361.8,10.469.518,12.585.38l.794-.051c.132-.011.265-.011.4-.016l.4-.012.4-.012c.132,0,.265-.011.4-.007l.794.008.4,0,.4.017.8.034L18.145.4c.132.009.265.015.4.026l.4.035C20,.55,21.05.673,22.093.868c.26.052.522.1.78.158.129.03.259.056.388.089l.385.1c.128.034.255.073.383.109s.252.082.379.122a5.577,5.577,0,0,1,.736.3,7.669,7.669,0,0,0-1.475-.612l-.383-.116c-.128-.038-.258-.069-.386-.1-.257-.072-.518-.126-.778-.188A28.928,28.928,0,0,0,18.96.232l-.4-.043c-.133-.014-.266-.023-.4-.035l-.8-.063-.8-.044-.4-.022-.4-.009L14.966,0c-.134,0-.267,0-.4.005l-.4.01-.4.01c-.134,0-.267,0-.4.014l-.8.048-.4.026c-.133.009-.266.024-.4.036l-.8.075c-.266.022-.53.058-.795.088l-.794.1L8.591.524C8.328.563,8.063.6,7.8.642c-.526.086-1.052.169-1.575.27-1.049.186-2.091.409-3.13.641S1.023,2.045,0,2.338Z" transform="translate(0 0)" fill="#e4e0dd"/>
          </g>
        </g>
        <g id="Group_22-2" data-name="Group 22" transform="translate(0 0.39)">
          <g id="Group_21-2" data-name="Group 21" transform="translate(0 0)">
            <path id="Path_14-2" data-name="Path 14" d="M8.452,12.952c-.536-.859-1.107-1.7-1.7-2.517q-.234-.322-.472-.64-.12-.16-.242-.319l-.122-.16-.053-.068L5.826,9.2l-.007-.01C5.481,8.754,5.138,8.32,4.8,7.882Q3.841,6.64,2.949,5.347C2.4,4.546,1.867,3.73,1.367,2.9.935,2.176.524,1.442.155.686Q.094.561.035.435a.3.3,0,0,1,.1-.4.3.3,0,0,1,.4.1C.887.883,1.281,1.6,1.7,2.31c.486.827,1,1.635,1.541,2.429Q4.112,6.03,5.059,7.27l.121.159.053.068.035.046.007.009.247.318.5.636c.338.434.673.871,1,1.314.608.824,1.192,1.667,1.743,2.532q.1.153.193.306a.294.294,0,0,1-.1.4.3.3,0,0,1-.4-.1Z" transform="translate(0 0)" fill="#e4e0dd"/>
          </g>
        </g>
      </g>
      <g id="Group_32-2" data-name="Group 32" transform="translate(0 39.082)">
        <g id="Group_29-2" data-name="Group 29" transform="translate(0 14.517)">
          <g id="Group_24-2" data-name="Group 24">
            <path id="Path_15-2" data-name="Path 15" d="M74.408,0,73.96.135C69.488,1.487,67.505,1.4,54.6.861c-2.671-.112-5.7-.24-9.332-.379a20.981,20.981,0,0,0-7.423,1.046,24.8,24.8,0,0,0-6.681,3.483c-3.962,2.858-7.722,7.018-11.494,12.72C12.712,28.254,6.929,42.262,1.336,55.81L.289,58.344c-.11.25-.206.484-.289.7l.541.217.286-.69A25.3,25.3,0,0,1,10,48.091c6.866-4.7,16.336-7.507,28.146-8.346a34.019,34.019,0,0,0,16.972-5.8A39.973,39.973,0,0,0,65.691,23.085,52.258,52.258,0,0,0,72.638,7.932,39.653,39.653,0,0,0,74.331.462ZM65.825,1.807A24.916,24.916,0,0,0,73.679.826a36.947,36.947,0,0,1-1.586,6.9l-.01.024-.006.026a51.512,51.512,0,0,1-6.88,15c-4.668,6.93-13.157,15.4-27.089,16.389-11.914.846-21.481,3.688-28.434,8.447a28.492,28.492,0,0,0-7.158,6.866C7.9,41.445,13.494,28.127,20.158,18.052c7.793-11.781,16-17.337,25.09-16.989,3.633.139,6.66.267,9.33.379C59.787,1.662,63.244,1.807,65.825,1.807Z" transform="translate(0)" fill="#e4e0dd"/>
          </g>
          <g id="Group_25-2" data-name="Group 25" transform="translate(9.017 0.593)">
            <path id="Path_16-2" data-name="Path 16" d="M0,45.459q.853-.929,1.725-1.84T3.47,41.8q1.755-1.811,3.538-3.593t3.6-3.531c1.212-1.164,2.428-2.323,3.662-3.463,2.469-2.279,4.973-4.518,7.548-6.672s5.2-4.246,7.929-6.2c1.361-.98,2.744-1.927,4.156-2.828l.264-.17.267-.166.534-.331c.356-.219.717-.431,1.076-.647l.544-.313c.182-.1.362-.21.546-.31.367-.2.73-.408,1.1-.6a39.41,39.41,0,0,1,4.549-2.094l.292-.111.146-.055.148-.052.591-.2c.1-.035.2-.066.3-.1l.3-.092.6-.184,2.417-.738c.2-.062.4-.122.6-.186l.6-.2,1.2-.4.6-.2c.2-.069.4-.131.6-.208l1.184-.443,1.183-.445L54.7,6.777l.584-.242.292-.121.146-.061.144-.066,1.149-.527.574-.265c.189-.092.376-.191.564-.286l1.126-.575,1.1-.624.275-.156c.09-.054.179-.112.268-.168l.534-.339.267-.17c.044-.029.09-.055.133-.085L61.988,3l.516-.366.258-.183c.085-.062.166-.13.249-.2l.494-.395c.042-.032.08-.068.119-.1l.117-.106.234-.212c.16-.137.3-.293.45-.444A4.913,4.913,0,0,0,65.2,0a4.892,4.892,0,0,1-.8.964c-.152.145-.3.294-.463.425l-.24.2-.12.1c-.04.034-.079.068-.122.1l-.5.378c-.084.062-.166.127-.252.187l-.262.174-.523.349-.131.087c-.044.029-.09.054-.135.082l-.27.161-.54.322c-.09.053-.179.108-.27.16l-.277.149-1.108.594-1.134.546c-.189.09-.377.183-.567.271L56.9,5.5,55.746,6l-.144.063-.146.058-.293.115-.586.23-1.171.459-1.186.421-1.186.421c-.2.074-.4.134-.6.2l-.6.193-1.2.386-.6.193c-.2.061-.4.118-.6.177l-2.417.7-.608.18-.305.091c-.1.03-.2.06-.3.1l-.6.2-.151.051-.149.055-.3.11a40,40,0,0,0-4.627,2.084c-1.5.781-2.955,1.641-4.38,2.545s-2.82,1.853-4.191,2.836A151.361,151.361,0,0,0,13.959,30.882Q10.3,34.36,6.805,38.007q-1.744,1.824-3.452,3.682Q2.5,42.62,1.661,43.56T0,45.459Z" fill="#e4e0dd"/>
          </g>
          <g id="Group_26-2" data-name="Group 26" transform="translate(32.127 7.098)">
            <path id="Path_17-2" data-name="Path 17" d="M26.892,1.944C24.668,1.41,22.416.988,20.151.657a61.953,61.953,0,0,0-6.84-.64C12.165-.014,11.016-.007,9.87.07c-.143.008-.286.023-.43.035l-.429.04-.854.1L7.73.3,7.3.359,6.88.423c-.142.022-.284.04-.425.068A27.149,27.149,0,0,0,3.1,1.259c-.138.039-.273.089-.409.133s-.273.088-.407.14l-.4.152c-.134.051-.265.111-.4.165s-.262.118-.391.179-.256.128-.383.2A4.37,4.37,0,0,0,0,2.7a4.344,4.344,0,0,1,.734-.437c.129-.062.256-.126.388-.18s.261-.115.4-.163.265-.1.4-.149l.405-.136c.135-.046.273-.082.409-.123S3,1.43,3.143,1.4l.414-.107.207-.054c.069-.017.139-.031.208-.047L4.389,1.1,4.6,1.049c.07-.015.14-.027.21-.041.28-.051.559-.109.84-.158L6.491.716c.14-.024.282-.04.423-.059L7.338.6,7.762.545,8.187.5l.85-.09L9.462.375c.142-.011.283-.024.425-.03C11.023.277,12.163.273,13.3.309s2.278.109,3.414.208,2.271.224,3.4.365,2.264.3,3.392.483S25.768,1.734,26.892,1.944Z" transform="translate(0 0)" fill="#e4e0dd"/>
          </g>
          <g id="Group_27-2" data-name="Group 27" transform="translate(32.881 10.81)">
            <path id="Path_18-2" data-name="Path 18" d="M19.564,0c-.647.943-1.3,1.878-1.982,2.8s-1.36,1.836-2.059,2.738S14.108,7.329,13.372,8.2,11.887,9.932,11.1,10.76s-1.591,1.632-2.442,2.386c-.1.1-.214.187-.322.28l-.325.276-.665.537-.333.268-.34.259-.339.26c-.113.086-.225.176-.341.257l-.693.5c-.233.164-.471.32-.706.482-.059.04-.117.081-.177.119l-.18.115-.361.229c-.06.038-.12.077-.181.114l-.184.108-.368.217c-.122.074-.249.138-.373.208s-.249.139-.377.2l-.383.19c-.128.064-.259.118-.389.177s-.262.111-.395.164-.267.1-.4.147a4.357,4.357,0,0,1-.828.21A4.37,4.37,0,0,0,.841,18.3c.137-.042.275-.082.409-.132s.271-.094.4-.15.267-.1.4-.163l.392-.177c.131-.058.257-.126.387-.189s.259-.125.384-.195a27.2,27.2,0,0,0,2.915-1.825c.119-.08.232-.168.348-.252l.346-.255.345-.256.338-.265.675-.532.332-.275c.11-.092.222-.183.329-.279.866-.755,1.684-1.562,2.473-2.394A61.9,61.9,0,0,0,15.7,5.673C17.073,3.839,18.367,1.949,19.564,0Z" fill="#e4e0dd"/>
          </g>
          <g id="Group_28-2" data-name="Group 28" transform="translate(17.382 16.916)">
            <path id="Path_19-2" data-name="Path 19" d="M23.421,0c-1.057.125-2.109.289-3.159.47s-2.1.384-3.135.618c-.521.109-1.039.236-1.557.359-.26.06-.517.131-.775.2l-.774.2-.769.219c-.256.074-.514.143-.767.226l-.764.239c-.127.041-.255.078-.381.121l-.378.13-.756.264c-.127.042-.25.094-.375.141l-.373.145-.373.145c-.124.049-.25.094-.371.15l-.734.323-.366.163-.36.175-.719.349L5.823,5c-.118.062-.237.122-.354.186l-.35.194A28.952,28.952,0,0,0,2.394,7.056c-.216.157-.436.308-.645.474-.105.082-.213.161-.316.245l-.309.255A7.661,7.661,0,0,0,0,9.164,5.563,5.563,0,0,1,.562,8.6c.1-.086.2-.175.3-.259s.206-.168.31-.249l.317-.24c.106-.08.216-.155.323-.232.214-.156.438-.3.658-.446.887-.582,1.813-1.1,2.752-1.6l.352-.185c.118-.061.238-.118.356-.177l.712-.355.72-.338.36-.169L8.092,4.2l.729-.314c.12-.055.246-.1.369-.147l.371-.143.371-.142c.124-.047.246-.1.372-.139l.752-.259c2.006-.69,4.058-1.247,6.123-1.745l.775-.185.777-.176c.259-.061.519-.116.778-.172s.519-.114.78-.166Q21.85.28,23.421,0Z" transform="translate(0)" fill="#e4e0dd"/>
          </g>
        </g>
        <g id="Group_31-2" data-name="Group 31" transform="translate(73.85 0)">
          <g id="Group_30-2" data-name="Group 30" transform="translate(0 0)">
            <path id="Path_20-2" data-name="Path 20" d="M.005,15.011c.162-.994.363-1.982.593-2.963.24-1.023.525-2.035.8-3.05s.52-2.039.737-3.069c.2-.956.377-1.917.518-2.883q.026-.176.05-.351l0-.022.01-.074.024-.184q.041-.322.075-.644c.042-.4.077-.8.1-1.2q.008-.14.014-.279a.291.291,0,0,1,.582,0c-.037.844-.128,1.684-.241,2.52-.13.962-.3,1.919-.49,2.87q-.311,1.54-.711,3.062C1.8,9.77,1.5,10.789,1.252,11.82c-.241.99-.453,1.988-.626,2.992q-.03.177-.059.353a.292.292,0,0,1-.358.2.3.3,0,0,1-.2-.358Z" transform="translate(0 0)" fill="#e4e0dd"/>
          </g>
        </g>
      </g>
      <g id="Group_41-2" data-name="Group 41" transform="translate(59.055 83.634)">
        <g id="Group_38-2" data-name="Group 38" transform="translate(0 9.344)">
          <g id="Group_33-2" data-name="Group 33" transform="translate(0 0)">
            <path id="Path_21-2" data-name="Path 21" d="M28.615,0l-.348.313c-2.278,2.048-3.483,2.553-11.322,5.839-1.625.682-3.468,1.454-5.676,2.389a14.8,14.8,0,0,0-7.2,6.7A31.653,31.653,0,0,0,.764,26.086C-.443,34.327.031,44.313.489,53.971q.043.9.085,1.8c0,.181.013.348.023.5l.582-.033q-.011-.246-.023-.491a16.584,16.584,0,0,1,2.528-8.771c2.772-4.713,7.625-9.031,14.423-12.832a22.525,22.525,0,0,0,8.54-8.257,26.45,26.45,0,0,0,3.279-9.475,34.591,34.591,0,0,0-.1-11.018A26.6,26.6,0,0,0,28.742.451ZM.982,52.059C.56,43.024.219,33.823,1.34,26.171,2.685,16.994,6.007,11.4,11.5,9.078,13.7,8.143,15.545,7.371,17.17,6.69c7.349-3.08,8.978-3.763,11.136-5.633a23.787,23.787,0,0,1,.941,4.386v.026l.005.026a33.865,33.865,0,0,1,.1,10.853c-.842,5.42-3.524,12.82-11.525,17.294C10.933,37.493,6.008,41.882,3.182,46.686A19.3,19.3,0,0,0,.982,52.059Z" transform="translate(0)" fill="#e4e0dd"/>
          </g>
          <g id="Group_34-2" data-name="Group 34" transform="translate(2.439 0.588)">
            <path id="Path_22-2" data-name="Path 22" d="M0,45.4q1.043-3.159,2.2-6.277.573-1.56,1.173-3.109c.4-1.032.805-2.063,1.226-3.087q.315-.768.638-1.533c.215-.51.43-1.02.651-1.527q.66-1.523,1.36-3.027c.932-2.005,1.917-3.986,3-5.912.536-.965,1.095-1.917,1.683-2.849.145-.235.3-.463.447-.7s.306-.458.46-.687.313-.453.474-.676.32-.448.487-.666a25.887,25.887,0,0,1,2.116-2.52c.1-.1.188-.2.287-.293l.294-.287c.1-.1.2-.185.3-.278l.3-.278,1.233-1.123.308-.281.3-.29.6-.579.3-.29c.1-.1.2-.191.3-.292l.581-.6.579-.6.559-.62.28-.31c.092-.1.189-.2.277-.313l.536-.641.267-.321c.087-.109.17-.221.255-.331l.508-.663.478-.685.12-.171c.039-.058.075-.118.112-.177l.221-.354c.153-.233.283-.479.419-.723l.1-.182c.033-.061.062-.125.092-.187l.182-.376c.107-.257.219-.512.3-.779A3.239,3.239,0,0,0,26.175,0a3.216,3.216,0,0,1-.217.8c-.095.26-.219.507-.339.756l-.2.364c-.033.061-.064.122-.1.181l-.108.176c-.145.235-.285.473-.446.7l-.235.341-.118.17-.125.165-.5.661-.527.639c-.088.106-.175.214-.264.319l-.276.309-.55.619c-.09.1-.189.2-.283.3l-.286.3-.572.6-.592.58-.592.58c-.1.1-.2.19-.3.284l-.3.282-.608.563-.3.282-.312.273-1.248,1.091-.314.278c-.1.094-.212.185-.313.282l-.305.291c-.1.1-.2.2-.3.3a26.432,26.432,0,0,0-2.19,2.544c-.68.887-1.309,1.811-1.908,2.751s-1.168,1.9-1.711,2.871c-1.079,1.948-2.068,3.942-2.988,5.966q-.687,1.519-1.329,3.057-.161.384-.319.77t-.313.772q-.309.773-.609,1.551-1.2,3.107-2.247,6.269C1.234,41.138.573,43.257,0,45.4Z" transform="translate(0 0)" fill="#e4e0dd"/>
          </g>
          <g id="Group_35-2" data-name="Group 35" transform="translate(6.073 9.89)">
            <path id="Path_23-2" data-name="Path 23" d="M15.839,0c-.742.138-1.477.307-2.21.488-.183.044-.366.092-.548.14s-.365.095-.547.145c-.364.1-.728.2-1.089.312a39.435,39.435,0,0,0-4.27,1.525c-.691.31-1.38.628-2.04,1L4.639,3.9l-.481.3-.24.151-.236.157c-.156.107-.315.21-.469.32a17.5,17.5,0,0,0-1.78,1.411,10.033,10.033,0,0,0-.794.813A4.112,4.112,0,0,0,0,7.987a2.867,2.867,0,0,1,.322-.462c.06-.072.119-.145.184-.213s.125-.139.193-.2.131-.135.2-.2l.2-.193c.068-.065.141-.124.211-.186s.14-.125.214-.183q.433-.359.888-.69c.154-.108.3-.22.458-.326l.467-.314c.156-.1.317-.2.475-.3l.237-.152.241-.145.482-.29.492-.27c.324-.187.664-.345,1-.512.166-.086.339-.159.51-.236l.513-.23c.172-.074.346-.145.519-.218s.345-.147.521-.214l.526-.2c.175-.068.35-.135.527-.2.353-.128.7-.261,1.061-.381l.533-.184.535-.178Q12.583.948,13.666.625C14.387.406,15.111.2,15.839,0Z" fill="#e4e0dd"/>
          </g>
          <g id="Group_36-2" data-name="Group 36" transform="translate(11.981 12.787)">
            <path id="Path_24-2" data-name="Path 24" d="M6.5,0C6.37.742,6.231,1.483,6.079,2.22S5.772,3.695,5.6,4.428l-.128.549-.135.548c-.086.366-.186.729-.282,1.092-.047.182-.1.363-.15.543L4.755,7.7c-.051.181-.111.359-.166.538s-.111.359-.169.537l-.182.532c-.061.177-.118.356-.189.53-.136.349-.262.7-.419,1.042l-.224.515-.245.507-.123.253-.129.25c-.086.167-.168.336-.258.5l-.27.493c-.092.163-.19.323-.283.486q-.287.484-.606.948c-.051.079-.108.153-.162.23s-.108.153-.166.227l-.173.222c-.058.074-.12.144-.18.217s-.123.141-.187.211-.129.135-.2.2A2.862,2.862,0,0,1,0,16.5a4.116,4.116,0,0,0,.872-.721,10.1,10.1,0,0,0,.737-.865,17.492,17.492,0,0,0,1.242-1.9c.1-.164.183-.331.275-.5l.135-.25.128-.253.256-.507.237-.518c.315-.692.567-1.407.813-2.124A39.485,39.485,0,0,0,5.824,4.475c.077-.37.144-.741.211-1.113.033-.186.063-.372.094-.558s.062-.372.09-.559C6.332,1.5,6.433.751,6.5,0Z" transform="translate(0 0)" fill="#e4e0dd"/>
          </g>
          <g id="Group_37-2" data-name="Group 37" transform="translate(1.835 19.693)">
            <path id="Path_25-2" data-name="Path 25" d="M11.411,0c-.6.362-1.188.749-1.768,1.146s-1.15.808-1.707,1.236c-.282.209-.557.429-.832.648s-.544.445-.816.669l-.4.345c-.132.116-.267.229-.4.35l-.39.357c-.065.06-.131.118-.194.179l-.19.184-.377.37c-.125.124-.244.255-.367.382s-.245.253-.362.386l-.348.4-.173.2-.165.206L2.6,7.47c-.213.28-.431.557-.633.846A18.538,18.538,0,0,0,.817,10.091c-.083.156-.171.308-.248.467-.039.079-.08.157-.118.237l-.11.24a4.972,4.972,0,0,0-.341,1,3.676,3.676,0,0,1,.185-.491c.037-.079.072-.16.111-.238s.078-.157.118-.234c.163-.309.34-.61.527-.906.371-.592.781-1.158,1.206-1.713l.159-.208c.053-.069.109-.136.164-.2L2.8,7.63l.336-.4.168-.2.174-.195.347-.39c.116-.13.24-.252.36-.379s.24-.253.365-.375l.376-.365c1-.973,2.067-1.881,3.155-2.762S10.277.828,11.411,0Z" transform="translate(0 0)" fill="#e4e0dd"/>
          </g>
        </g>
        <g id="Group_40-2" data-name="Group 40" transform="translate(25.867 0)">
          <g id="Group_39-2" data-name="Group 39" transform="translate(0 0)">
            <path id="Path_26-2" data-name="Path 26" d="M2.412,10.02c-.183-.643-.341-1.293-.479-1.947-.145-.685-.259-1.376-.382-2.065a34.034,34.034,0,0,0-.92-3.894A18.505,18.505,0,0,0,.015.367a.292.292,0,0,1,.2-.358.3.3,0,0,1,.358.2A22.746,22.746,0,0,1,1.633,3.576q.244,1,.431,2.009c.129.694.239,1.391.379,2.083.15.738.324,1.472.53,2.2a.291.291,0,0,1-.562.155Z" transform="translate(0 0)" fill="#e4e0dd"/>
          </g>
        </g>
      </g>
      <g id="Group_50-2" data-name="Group 50" transform="translate(93.756 115.791)">
        <g id="Group_47-2" data-name="Group 47" transform="translate(3.355 2.642)">
          <g id="Group_42-2" data-name="Group 42" transform="translate(0 0)">
            <path id="Path_27-2" data-name="Path 27" d="M18.158,0a10.968,10.968,0,0,0-3.322.513c-1.8.569-3.3,1.048-4.621,1.471C3.847,4.022,2.868,4.335.468,4.273L0,4.261l.2.425A21.209,21.209,0,0,0,2.08,8.212a27.328,27.328,0,0,0,5.585,6.663,20.893,20.893,0,0,0,6.829,4.01,17.8,17.8,0,0,0,9.369.581c6-1.2,11.107-1.092,15.167.31A13,13,0,0,1,45,23.717l.237.306.464-.352c-.072-.1-.153-.2-.243-.314l-.871-1.125C39.92,16.212,35.1,9.986,30.156,5.664A24.979,24.979,0,0,0,22.611.847,12.7,12.7,0,0,0,18.158,0ZM.952,4.862c2.182,0,3.57-.444,9.44-2.323,1.322-.423,2.819-.9,4.619-1.471,4.453-1.407,9.282.24,14.762,5.034,4.49,3.928,8.9,9.466,13.185,14.982a15.488,15.488,0,0,0-3.739-1.859,23.41,23.41,0,0,0-7.655-1.167,40.141,40.141,0,0,0-7.816.837,18.184,18.184,0,0,1-15.7-4.462A26.56,26.56,0,0,1,2.579,7.912l-.013-.023-.016-.02A18.49,18.49,0,0,1,.921,4.862Z" transform="translate(0 0)" fill="#e4e0dd"/>
          </g>
          <g id="Group_43-2" data-name="Group 43" transform="translate(0.399 4.676)">
            <path id="Path_28-2" data-name="Path 28" d="M38.889,13.811c-1.432-1-2.907-1.94-4.4-2.856q-1.12-.682-2.255-1.339c-.756-.439-1.521-.864-2.289-1.283q-.577-.313-1.156-.621c-.193-.1-.387-.2-.582-.3l-.584-.3q-1.171-.594-2.359-1.156c-1.586-.744-3.2-1.434-4.843-2.051-.823-.3-1.655-.587-2.5-.844s-1.691-.489-2.554-.672a20.961,20.961,0,0,0-2.62-.4c-.221-.021-.443-.031-.664-.042-.111-.007-.222-.006-.333-.009l-.331-.005-1.3-.011-.326,0L9.468,1.9l-.652-.025c-.217-.01-.435-.013-.652-.028l-.65-.042-.651-.042L6.215,1.7c-.216-.022-.433-.039-.648-.067l-.646-.087L4.6,1.5c-.107-.016-.214-.036-.321-.054l-.642-.11L3,1.2l-.159-.035-.157-.041-.315-.083C2.155.995,1.95.925,1.743.86L1.587.81c-.052-.017-.1-.038-.152-.057L1.13.638C.932.552.73.469.54.363A2.525,2.525,0,0,1,0,0,2.561,2.561,0,0,0,.518.4C.7.521.9.618,1.095.718l.3.134c.05.022.1.046.151.066L1.7.977c.205.077.41.16.62.222l.314.1c.052.017.1.034.157.049l.159.042.637.169L4.23,1.7c.107.023.214.048.322.07l.324.057.649.113c.217.035.434.06.651.091l.652.088.654.066.655.065c.218.02.437.03.656.045l.656.042.328.021.328.012,1.314.046.324.011c.107,0,.214,0,.321.013.214.014.428.027.642.051a20.424,20.424,0,0,1,2.548.431,38.618,38.618,0,0,1,4.967,1.523c1.63.6,3.231,1.282,4.815,2q1.189.539,2.363,1.113c.392.19.781.386,1.171.58s.779.39,1.167.588c.776.4,1.546.806,2.316,1.215s1.534.829,2.3,1.253Q36.638,12.469,38.889,13.811Z" transform="translate(0)" fill="#e4e0dd"/>
          </g>
          <g id="Group_44-2" data-name="Group 44" transform="translate(9.169 3.168)">
            <path id="Path_29-2" data-name="Path 29" d="M0,3.653c.541-.246,1.082-.489,1.627-.723s1.09-.466,1.639-.688l.412-.165.414-.161c.275-.11.553-.209.831-.312s.557-.2.835-.3.562-.182.843-.272L7.025.91c.141-.041.282-.086.425-.119.286-.071.57-.15.858-.2L8.741.5,9.177.421,9.4.385,9.615.354c.146-.021.292-.045.438-.063l.44-.052L10.933.2q.441-.037.883-.046.221,0,.442,0l.221.009c.074,0,.147.01.221.015s.147.014.22.022.146.02.219.031a2.277,2.277,0,0,1,.43.108A3.2,3.2,0,0,0,12.71.1a7.859,7.859,0,0,0-.892-.088,13.567,13.567,0,0,0-1.79.056c-.149.012-.3.031-.445.047L9.36.137,9.139.169,8.7.234,8.254.316C7.665.428,7.089.589,6.515.757c-.284.092-.568.184-.85.281l-.421.151c-.14.05-.281.1-.419.156-.277.11-.555.217-.829.333l-.412.173-.408.182c-.272.12-.542.246-.811.374l-.4.2c-.134.065-.267.131-.4.2C1.037,3.072.512,3.35,0,3.653Z" transform="translate(0 0)" fill="#e4e0dd"/>
          </g>
          <g id="Group_45-2" data-name="Group 45" transform="translate(12.703 6.803)">
            <path id="Path_30-2" data-name="Path 30" d="M0,0C.421.42.862.82,1.308,1.212c.111.1.225.195.338.291l.34.289c.229.189.459.378.693.562l.35.277.357.269c.236.181.48.353.721.528.12.089.243.172.367.255l.37.25c.249.164.5.323.754.482.514.3,1.032.6,1.576.856l.408.189L8,5.631l.207.085.209.08c.14.051.279.106.42.155a13.605,13.605,0,0,0,1.721.5,7.87,7.87,0,0,0,.886.135,3.22,3.22,0,0,0,.892-.022,2.258,2.258,0,0,1-.443,0c-.074-.007-.147-.012-.22-.023s-.146-.019-.219-.032-.145-.024-.218-.039l-.216-.046q-.215-.051-.429-.108-.427-.118-.845-.262L9.325,5.9l-.413-.159c-.137-.053-.273-.113-.409-.169l-.2-.084L8.1,5.4l-.4-.179-.4-.194c-.266-.124-.522-.271-.781-.41-.13-.068-.256-.146-.383-.221l-.38-.226c-.251-.156-.5-.311-.75-.471S4.508,3.37,4.265,3.2s-.489-.333-.728-.507l-.361-.258-.358-.262Q2.1,1.648,1.4,1.1C.928.741.464.372,0,0Z" transform="translate(0 0)" fill="#e4e0dd"/>
          </g>
          <g id="Group_46-2" data-name="Group 46" transform="translate(19.371 7.829)">
            <path id="Path_31-2" data-name="Path 31" d="M0,.434Q1.656.327,3.308.286c1.1-.023,2.2-.023,3.3.049l.411.026c.137.009.273.025.409.038s.273.024.409.042L8.242.5l.2.027.2.034.407.068.4.077c.135.023.27.052.4.08.538.113,1.073.239,1.6.4.263.079.523.167.78.266.128.051.255.1.38.162a2.881,2.881,0,0,1,.364.2,3.851,3.851,0,0,0-.711-.431c-.249-.123-.507-.228-.766-.328A14.216,14.216,0,0,0,9.916.561C9.647.49,9.375.434,9.1.375L8.7.3l-.2-.04L8.284.224,7.871.162C7.733.142,7.594.131,7.456.115S7.179.084,7.04.074L6.625.044C6.07.011,5.515,0,4.96,0S3.851.022,3.3.06,2.194.143,1.643.2.545.336,0,.434Z" transform="translate(0 0)" fill="#e4e0dd"/>
          </g>
        </g>
        <g id="Group_49-2" data-name="Group 49" transform="translate(0 0)">
          <g id="Group_48-2" data-name="Group 48">
            <path id="Path_32-2" data-name="Path 32" d="M3.54,7.443c-.219-.48-.458-.951-.71-1.414C2.566,5.544,2.281,5.072,2,4.6A26.761,26.761,0,0,1,.557,1.781C.356,1.318.166.848.011.366a.294.294,0,0,1,.2-.358.3.3,0,0,1,.358.2Q.666.5.775.786q.058.154.12.307l.058.141.037.088c-.024-.058.011.026.018.042.2.456.407.906.631,1.349Q2,3.431,2.4,4.129c.276.478.564.948.832,1.431.288.52.559,1.049.806,1.589a.3.3,0,0,1-.1.4.3.3,0,0,1-.4-.1Z" transform="translate(0 0)" fill="#e4e0dd"/>
          </g>
        </g>
      </g>
      <g id="Group_51-2" data-name="Group 51" transform="translate(48.035 0)">
        <path id="Path_33-2" data-name="Path 33" d="M62.588,145.993a138.9,138.9,0,0,1-18.644-35.887l-.808-2.4c-.033-.1-.069-.2-.1-.3l-.093-.3-.186-.605-.371-1.21-.372-1.21c-.117-.406-.228-.813-.342-1.219-.225-.813-.456-1.626-.677-2.44l-.612-2.457-.153-.614-.077-.307-.069-.309L39.811,95.5l-.274-1.236-.137-.618c-.047-.206-.084-.413-.127-.62l-.249-1.241-.234-1.245q-.459-2.491-.855-4.995c-.135-.834-.257-1.671-.384-2.506s-.244-1.673-.359-2.511c-.47-3.351-.9-6.711-1.338-10.073q-.334-2.521-.688-5.042l-.182-1.26q-.09-.63-.186-1.26l-.191-1.259-.2-1.258c-.274-1.677-.56-3.352-.883-5.022l-.119-.627-.126-.625-.254-1.25c-.18-.832-.354-1.665-.552-2.493l-.144-.622-.072-.311-.077-.31-.308-1.24c-.1-.413-.217-.823-.326-1.235l-.164-.617-.175-.614c-.454-1.642-.974-3.266-1.525-4.879l-.425-1.206c-.145-.4-.3-.8-.449-1.2l-.226-.6-.241-.592-.483-1.184c-.041-.1-.079-.2-.122-.3l-.129-.293-.258-.585c-.173-.389-.341-.781-.519-1.168l-.548-1.155-.274-.577c-.045-.1-.092-.192-.141-.287l-.144-.285c-.387-.759-.762-1.524-1.176-2.269l-.608-1.124L23.309,26.6c-.842-1.479-1.744-2.923-2.667-4.353-1.859-2.85-3.875-5.592-6-8.241-.526-.667-1.078-1.313-1.62-1.966-.27-.328-.55-.647-.827-.968l-.833-.963-.849-.949-.425-.474q-.212-.238-.428-.471-.858-.94-1.75-1.851c-.594-.607-1.2-1.2-1.82-1.783S4.833,3.439,4.175,2.9,2.846,1.844,2.149,1.359.736.42,0,0Q1.079.672,2.1,1.433c.678.506,1.329,1.047,1.965,1.6s1.251,1.136,1.853,1.73S7.1,5.97,7.674,6.591c2.285,2.492,4.458,5.093,6.517,7.773l.771,1.006.753,1.019.376.51.188.255.183.259.731,1.035.365.518.355.524.71,1.049c.12.174.233.352.348.529l.344.531c.228.355.461.707.684,1.065.888,1.435,1.763,2.878,2.576,4.356l.612,1.106.585,1.121c.4.743.761,1.5,1.134,2.26l.139.283c.047.094.093.189.136.285l.264.574.527,1.148c.171.385.332.774.5,1.161l.248.581.124.29c.041.1.078.2.117.293.627,1.563,1.227,3.136,1.755,4.736s1.027,3.208,1.466,4.835l.169.609.158.612c.1.408.214.815.314,1.225l.3,1.229.074.307.07.309.139.617c.19.821.357,1.649.533,2.474l.246,1.241.122.621.115.623c.314,1.659.591,3.325.857,4.994s.51,3.342.748,5.017.459,3.354.68,5.032c.446,3.358.875,6.721,1.355,10.081.118.84.246,1.679.37,2.519s.257,1.679.4,2.517.279,1.676.423,2.513c.072.419.151.836.227,1.254l.115.627.121.626.244,1.252.259,1.249c.044.208.083.417.132.624l.142.622.284,1.244.284,1.244.072.311.08.309.16.617.64,2.47c.23.819.47,1.635.7,2.452.119.408.234.818.356,1.225l.388,1.215.389,1.214.194.608.1.3c.033.1.07.2.1.3l.843,2.408c1.162,3.195,2.407,6.361,3.82,9.452l.521,1.163c.085.195.178.386.27.577l.276.574,1.1,2.3,1.166,2.265.292.566.146.283c.048.094.1.189.149.281l.615,1.115.616,1.115.308.557.154.278.161.274,1.292,2.194.323.548c.107.183.224.361.335.541l.675,1.079.676,1.078c.114.179.224.36.341.537l.354.529,1.414,2.115.177.265c.058.088.122.173.183.261l.368.519.736,1.037.738,1.036c.121.174.252.34.379.511l.383.507Z" transform="translate(0)" fill="#e4e0dd"/>
      </g>
    </g>
    <path id="Path_2" data-name="Path 2" d="M2899.256-2156.879s-12.162,152.534-173.311,173.817-370.945-16.723-237.162-209.8S2730.507-2430.021,2805-2360.088,2903.706-2224.535,2899.256-2156.879Z" transform="translate(-2601.765 2585.314)" fill="#f9acbb" opacity="0.2"/>
    <path id="Path_1" data-name="Path 1" d="M2446.7-2212.226s12.162-152.534,173.311-173.817,370.945,16.723,237.162,209.8-241.723,237.162-316.216,167.229S2442.25-2144.571,2446.7-2212.226Z" transform="translate(-2545.978 2605.553)" fill="#a2eae0" opacity="0.46"/>
    <g id="Group_2" data-name="Group 2" transform="translate(-13 -3)">
      <g id="Component_1_1" data-name="Component 1  1" transform="translate(425 785)">
        <text id="Nguyen_Thi_Thu_Thuy" data-name="Nguyen Thi Thu Thuy" transform="translate(0 13)" fill="#343a40" font-size="14" font-family="Helvetica-Bold, Helvetica" font-weight="700"><tspan x="0" y="0">Nguyen Thi Thu Thuy</tspan></text>
      </g>
      <rect id="Rectangle_8" data-name="Rectangle 8" width="61" height="2" transform="translate(491 807)" fill="#e4e0dd"/>
    </g>
    <g id="Group_5" data-name="Group 5" transform="translate(-0.697 19.347)">
      <g id="Group_1" data-name="Group 1" transform="translate(381.261 374.97)">
        <g id="Component_1_1-2" data-name="Component 1  1" transform="translate(0.436 -15.318)">
          <text id="_Senior_UI_UX_Designer" data-name="  Senior UI &amp; UX Designer" transform="translate(0 18)" fill="#343a40" font-size="17" font-family="Helvetica"><tspan x="0" y="0" xml:space="preserve">  Senior UI &amp; UX Designer</tspan></text>
        </g>
        <g id="Component_1_1-3" data-name="Component 1  1" transform="translate(0.436 22.682)">
          <text id="_Illustrator" data-name="  Illustrator" transform="translate(0 18)" fill="#343a40" font-size="17" font-family="Helvetica"><tspan x="0" y="0" xml:space="preserve">  Illustrator</tspan></text>
        </g>
      </g>
      <g id="Group_4" data-name="Group 4" transform="translate(35 329)">
        <g id="Component_1_1-4" data-name="Component 1  1" transform="translate(0 0)">
          <text id="Curriculum" transform="translate(-0.303 57.653)" fill="#343a40" font-size="45" font-family="Helvetica-Bold, Helvetica" font-weight="700"><tspan x="0" y="0">CURRICULUM</tspan></text>
        </g>
        <g id="Group_3" data-name="Group 3" transform="translate(229.727 72.938)">
          <g id="Component_1" data-name="Component 1" transform="translate(0 0)">
            <text id="_2021" data-name="2021" transform="translate(-0.03 38.715)" fill="#343a40" font-size="36" font-family="Helvetica"><tspan x="0" y="0">2021</tspan></text>
          </g>
        </g>
      </g>
      <rect id="Rectangle_10" data-name="Rectangle 10" width="93" height="6" transform="translate(378.697 343.653) rotate(90)" fill="#f9acbb"/>
    </g>
  </g>
</svg>
