<svg xmlns="http://www.w3.org/2000/svg" width="16" height="16" viewBox="0 0 16 16">
  <g id="Group_58" data-name="Group 58" transform="translate(-30 -668)">
    <rect id="Rectangle_15" data-name="Rectangle 15" width="16" height="16" rx="8" transform="translate(30 668)" fill="#343a40"/>
    <path id="Icon_awesome-behance" data-name="Icon awesome-behance" d="M3.625,3.706A1.186,1.186,0,0,0,4.381,2.55c0-1.1-.822-1.372-1.77-1.372H0V6.716H2.684c1.006,0,1.952-.483,1.952-1.608a1.334,1.334,0,0,0-1.011-1.4ZM1.217,2.123H2.359c.439,0,.834.123.834.633,0,.47-.308.659-.742.659H1.217V2.123Zm1.3,3.652h-1.3V4.25H2.544c.536,0,.875.223.875.791s-.4.734-.9.734Zm5.6-3.761H5.875V1.469H8.12v.545ZM9,4.769A1.971,1.971,0,0,0,7.048,2.594,2.015,2.015,0,0,0,5,4.716a1.953,1.953,0,0,0,2.052,2.1A1.788,1.788,0,0,0,8.925,5.472H7.953A.912.912,0,0,1,7.083,6,.907.907,0,0,1,6.1,4.975H8.991C9,4.909,9,4.839,9,4.769ZM6.1,4.281a.861.861,0,0,1,.914-.856.821.821,0,0,1,.878.856Z" transform="translate(33.5 672.001)" fill="#fff"/>
  </g>
</svg>
