<svg xmlns="http://www.w3.org/2000/svg" width="16" height="16" viewBox="0 0 16 16">
  <g id="Group_58" data-name="Group 58" transform="translate(-30 -668)">
    <rect id="Rectangle_15" data-name="Rectangle 15" width="16" height="16" rx="8" transform="translate(30 668)" fill="#343a40"/>
    <path id="Icon_awesome-birthday-cake" data-name="Icon awesome-birthday-cake" d="M7,6c-.438,0-.488-.5-1.164-.5S5.1,6,4.668,6,4.176,5.5,3.5,5.5,2.762,6,2.336,6s-.488-.5-1.168-.5S.439,6,0,6V4.75A.75.75,0,0,1,.75,4H1V1.75H2V4H3V1.75H4V4H5V1.75H6V4h.25A.75.75,0,0,1,7,4.75ZM7,8H0V6.5C.677,6.5.731,6,1.168,6s.488.5,1.168.5S3.074,6,3.5,6s.488.5,1.168.5S5.4,6,5.836,6s.488.5,1.164.5ZM1.5,1.5A.5.5,0,0,1,1,1c0-.484.5-.359.5-1,.188,0,.5.461.5.875S1.777,1.5,1.5,1.5Zm2,0A.5.5,0,0,1,3,1c0-.484.5-.359.5-1,.188,0,.5.461.5.875S3.777,1.5,3.5,1.5Zm2,0A.5.5,0,0,1,5,1c0-.484.5-.359.5-1,.188,0,.5.461.5.875S5.777,1.5,5.5,1.5Z" transform="translate(34.5 672)" fill="#fff"/>
  </g>
</svg>
