<svg xmlns="http://www.w3.org/2000/svg" width="180" height="151.092" viewBox="0 0 180 151.092">
  <g id="Group_104" data-name="Group 104" transform="translate(-30 -71.908)">
    <g id="ListIntersiting" transform="translate(30 71.908)">
      <rect id="Rectangle_18" data-name="Rectangle 18" width="80" height="40" transform="translate(0 11.092)" fill="#92d7ef" opacity="0.25"/>
      <g id="Group_86" data-name="Group 86" transform="translate(56.601 -4918.073)">
        <g id="Group_80" data-name="Group 80" transform="translate(-38.886 4933.192)">
          <g id="Group_76" data-name="Group 76" transform="translate(3.607 8.517)">
            <path id="Path_46" data-name="Path 46" d="M.1,5088.977a7.024,7.024,0,0,0,4.52,4.7c-.137.125-.246.23-.362.33q-2.849,2.459-5.7,4.916-3.744,3.207-7.5,6.4a2.28,2.28,0,0,1-3.2-.046,2.275,2.275,0,0,1,.035-3.232c1.315-1.428,2.645-2.841,3.968-4.261q3.941-4.23,7.882-8.459C-.162,5089.219-.054,5089.123.1,5088.977Z" transform="translate(12.803 -5088.977)" fill="#343a40"/>
          </g>
          <g id="Group_77" data-name="Group 77" transform="translate(19.266 0)">
            <path id="Path_47" data-name="Path 47" d="M110.927,5033.363a6.855,6.855,0,0,1-1.41,4.531.488.488,0,0,1-.687.194,15.685,15.685,0,0,1-8.351-8.721.507.507,0,0,1,.238-.715,6.234,6.234,0,0,1,6.714-.509A6.021,6.021,0,0,1,110.927,5033.363Z" transform="translate(-100.417 -5027.393)" fill="#343a40"/>
          </g>
          <g id="Group_78" data-name="Group 78" transform="translate(0 24.769)">
            <path id="Path_48" data-name="Path 48" d="M-35.448,5206.49c.137.157.268.323.415.472s.309.279.485.437a9.211,9.211,0,0,0-2.578,3.432,4.525,4.525,0,0,0-.387,2.655,3.359,3.359,0,0,0,3.961,2.542,18.759,18.759,0,0,0,3.2-.792,55.517,55.517,0,0,0,7.88-3.659,23.745,23.745,0,0,1,6.117-2.439,10.372,10.372,0,0,1,8,1.5.661.661,0,0,1,.309.944.639.639,0,0,1-.969.189c-3.26-2.145-6.626-1.931-10-.379-2.1.966-4.135,2.087-6.218,3.1A31.286,31.286,0,0,1-32.4,5217.2a6.59,6.59,0,0,1-3.226-.037,4.447,4.447,0,0,1-3.22-4.914A9.237,9.237,0,0,1-35.448,5206.49Z" transform="translate(38.886 -5206.49)" fill="#343a40"/>
          </g>
          <g id="Group_79" data-name="Group 79" transform="translate(16.927 2.212)">
            <path id="Path_49" data-name="Path 49" d="M93.973,5052.607a6.4,6.4,0,0,1-8.828-9.22A17.051,17.051,0,0,0,93.973,5052.607Z" transform="translate(-83.507 -5043.388)" fill="#343a40"/>
          </g>
        </g>
        <g id="Group_81" data-name="Group 81" transform="translate(-35.136 4968.865)">
          <path id="Path_50" data-name="Path 50" d="M-11.769,5285.549l.284-.217.06.072-.275.228Z" transform="translate(11.769 -5285.332)" fill="#343a40"/>
        </g>
        <g id="Group_82" data-name="Group 82" transform="translate(-33.676 4968.854)">
          <path id="Path_51" data-name="Path 51" d="M-1.213,5285.532l.435-.284-.06,0c0,.075.024.2-.01.216A1.25,1.25,0,0,1-1.213,5285.532Z" transform="translate(1.213 -5285.248)" fill="#343a40"/>
        </g>
        <g id="Group_83" data-name="Group 83" transform="translate(-4.042 4936.167)">
          <path id="Path_52" data-name="Path 52" d="M216.188,5059.687l-3.135-7.3,6.011-3.484c.032.067.061.123.085.18q1.743,4.07,3.488,8.139a1.546,1.546,0,0,1-.125,1.513,2.256,2.256,0,0,1-2.393.961,1.483,1.483,0,0,1-.933-2.306,2.275,2.275,0,0,1,2.408-.976c.043.011.086.02.178.04l-2.334-5.438c-.074.041-.139.076-.2.114q-2.386,1.419-4.774,2.835c-.136.08-.132.15-.079.275.866,2.013,1.709,4.035,2.6,6.037a1.72,1.72,0,0,1-.61,2.214,2.176,2.176,0,0,1-2.089.333,1.418,1.418,0,0,1-.818-1.951,2.247,2.247,0,0,1,2.521-1.238Zm-2.084-6.121,5.123-3.049-.178-.391-5.134,3.01Z" transform="translate(-213.053 -5048.904)" fill="#343a40"/>
        </g>
        <g id="Group_84" data-name="Group 84" transform="translate(-28.67 4925.063)">
          <path id="Path_53" data-name="Path 53" d="M37.643,4973.9l2.108-5.291,4.83,1.287-.47,1.18c-.626,1.569-1.269,3.132-1.87,4.71a1.323,1.323,0,0,1-1.642.807,1.475,1.475,0,0,1-1.091-.984,1.054,1.054,0,0,1,.967-1.365,1.6,1.6,0,0,1,1.59.771.923.923,0,0,0,.061.076l1.829-4.585-4.134-1.078c-.067.16-.135.314-.2.47-.621,1.557-1.255,3.109-1.856,4.675a1.306,1.306,0,0,1-1.558.844A1.514,1.514,0,0,1,35,4974.308a1.044,1.044,0,0,1,.877-1.249,1.627,1.627,0,0,1,1.693.74C37.591,4973.825,37.609,4973.851,37.643,4973.9Z" transform="translate(-34.983 -4968.608)" fill="#343a40"/>
        </g>
        <g id="Group_85" data-name="Group 85" transform="translate(-7.154 4918.073)">
          <path id="Path_54" data-name="Path 54" d="M196.328,4918.073l.458.128a3.992,3.992,0,0,0,.235,1.619,4.377,4.377,0,0,0,.82,1.387,2.237,2.237,0,0,1,.653,1.722,1.32,1.32,0,0,1-1.121,1.171,2.307,2.307,0,0,0,.184-.153,1.422,1.422,0,0,0,.311-1.688,3.757,3.757,0,0,0-.415-.669,6.95,6.95,0,0,1-1-1.671.342.342,0,0,0-.048-.062l-.524,2.014q-.656,2.522-1.313,5.043a1.725,1.725,0,0,1-1.6,1.306,2.344,2.344,0,0,1-1.835-.621,1.518,1.518,0,0,1-.5-1.609,1.541,1.541,0,0,1,1.306-1.1,2.3,2.3,0,0,1,2.37.947Z" transform="translate(-190.556 -4918.073)" fill="#343a40"/>
        </g>
      </g>
      <g id="text-secondary2" transform="translate(25 56.092)">
        <text id="Singing" transform="translate(0 11)" fill="#343a40" font-size="10" font-family="Helvetica"><tspan x="0" y="0">Singing</tspan></text>
      </g>
    </g>
    <g id="ListIntersiting-2" data-name="ListIntersiting" transform="translate(30 162)">
      <rect id="Rectangle_18-2" data-name="Rectangle 18" width="80" height="40" transform="translate(0 2)" fill="#92d7ef" opacity="0.25"/>
      <g id="text-secondary2-2" data-name="text-secondary2" transform="translate(18 47)">
        <text id="Swimming" transform="translate(0 11)" fill="#343a40" font-size="10" font-family="Helvetica"><tspan x="0" y="0">Swimming</tspan></text>
      </g>
      <g id="Group_102" data-name="Group 102" transform="translate(-1779.146 -5374.438)">
        <g id="Group_99" data-name="Group 99">
          <path id="Path_60" data-name="Path 60" d="M1844.1,5397.129a10.418,10.418,0,0,1-.412,6.463,8.275,8.275,0,0,1-3.513,4.164,10.381,10.381,0,0,1-4.255,1.385,20.622,20.622,0,0,1-9.254-1.383,44.2,44.2,0,0,1-5.95-2.694,34.455,34.455,0,0,0-8.842-3.44,15.477,15.477,0,0,0-8.576.381,16.533,16.533,0,0,0-5.816,3.579c-1.164,1.094-2.2,2.321-3.3,3.49-.093.1-.18.2-.324.365a14.6,14.6,0,0,1,1.4-4.757,15.91,15.91,0,0,1,9.961-8.694,18.448,18.448,0,0,1,8.364-.5,31.123,31.123,0,0,1,10.647,3.949,52.47,52.47,0,0,0,7.022,3.525,15.577,15.577,0,0,0,5.493,1.279,6.044,6.044,0,0,0,5-2.479,13.834,13.834,0,0,0,2.091-4.069c.055-.155.1-.312.161-.467C1844.016,5397.2,1844.044,5397.183,1844.1,5397.129Z" fill="#343a40"/>
        </g>
        <g id="Group_100" data-name="Group 100">
          <path id="Path_61" data-name="Path 61" d="M1807.151,5393.569c.292-.171.582-.346.876-.514,2.373-1.354,4.757-2.689,7.112-4.074a8.831,8.831,0,0,0,1.449-1.226c.063-.059.018-.3-.049-.424-.942-1.671-1.9-3.334-2.848-5-.766-1.343-1.55-2.675-2.291-4.031a2.485,2.485,0,0,1,1.136-3.649,2.431,2.431,0,0,1,3.034.893c.649,1.025,1.231,2.093,1.833,3.148,1.444,2.528,2.933,5.033,4.311,7.6,1.437,2.672,2.767,5.4,4.14,8.108.861,1.7,1.715,3.4,2.612,5.171a3.465,3.465,0,0,1-.338-.136c-2.077-1.117-4.126-2.29-6.237-3.34a26.684,26.684,0,0,0-8.334-2.613,19.068,19.068,0,0,0-6.063.118,3,3,0,0,1-.318.031Z" fill="#343a40"/>
        </g>
        <g id="Group_101" data-name="Group 101">
          <path id="Path_62" data-name="Path 62" d="M1825.681,5388.211a5.429,5.429,0,1,1,5.4,5.417A5.446,5.446,0,0,1,1825.681,5388.211Z" fill="#343a40"/>
        </g>
      </g>
    </g>
    <g id="ListIntersiting-3" data-name="ListIntersiting" transform="translate(130 80)">
      <rect id="Rectangle_18-3" data-name="Rectangle 18" width="80" height="40" transform="translate(0 3)" fill="#92d7ef" opacity="0.25"/>
      <g id="text-secondary2-3" data-name="text-secondary2" transform="translate(27 48)">
        <text id="Travel" transform="translate(0 11)" fill="#343a40" font-size="10" font-family="Helvetica"><tspan x="0" y="0">Travel</tspan></text>
      </g>
      <g id="Group_98" data-name="Group 98" transform="translate(-1829.214 -5644.728)">
        <g id="Group_89" data-name="Group 89">
          <g id="Group_87" data-name="Group 87">
            <path id="Path_55" data-name="Path 55" d="M1852.686,5644.73c6.148-.15,12.227,6.29,9.717,13.2-1.864,5.134-4.377,10.032-6.586,15.041-.269.609-.694,1.591-.952,2.083-.967,1.847-1.358,2.249-2.266,2.236-.624-.01-1.509-.838-2.078-2.037a184.832,184.832,0,0,1-7.741-17.5C1840.431,5651.209,1845.719,5644.7,1852.686,5644.73Zm-.1,30.523c2.6-6.277,5.427-12.465,7.812-18.821,1.057-2.816-.633-6.15-3.344-8a8.1,8.1,0,0,0-9.074.095c-2.654,1.866-4.217,5.22-3.139,8.058C1847.229,5662.881,1850.01,5669.027,1852.583,5675.253Z" fill="#343a40"/>
          </g>
          <g id="Group_88" data-name="Group 88">
            <circle id="Ellipse_2" data-name="Ellipse 2" cx="5.068" cy="5.068" r="5.068" transform="translate(1847.531 5649.805)" fill="#343a40"/>
          </g>
        </g>
        <g id="Group_92" data-name="Group 92">
          <g id="Group_90" data-name="Group 90">
            <path id="Path_56" data-name="Path 56" d="M1888.37,5658.54c3.913-.1,7.783,4,6.186,8.4-1.187,3.269-2.787,6.387-4.194,9.576-.171.388-.441,1.012-.606,1.326-.615,1.176-.864,1.432-1.442,1.423-.4-.006-.961-.533-1.323-1.3a117.783,117.783,0,0,1-4.928-11.144C1880.567,5662.664,1883.934,5658.519,1888.37,5658.54Zm-.066,19.432c1.652-4,3.455-7.936,4.973-11.982.673-1.793-.4-3.916-2.129-5.093a5.156,5.156,0,0,0-5.777.061c-1.689,1.188-2.684,3.323-2,5.13C1884.9,5670.1,1886.666,5674.008,1888.3,5677.972Z" fill="#343a40"/>
          </g>
          <g id="Group_91" data-name="Group 91">
            <circle id="Ellipse_3" data-name="Ellipse 3" cx="3.226" cy="3.226" r="3.226" transform="translate(1885.087 5661.771)" fill="#343a40"/>
          </g>
        </g>
        <g id="Group_95" data-name="Group 95">
          <g id="Group_93" data-name="Group 93">
            <path id="Path_57" data-name="Path 57" d="M1874.247,5650.812a3.143,3.143,0,0,1,3.019,4.1c-.579,1.595-1.36,3.117-2.047,4.673-.083.19-.215.5-.3.648-.3.573-.422.7-.7.694-.194,0-.469-.26-.646-.633a57.472,57.472,0,0,1-2.405-5.438A3.1,3.1,0,0,1,1874.247,5650.812Zm-.032,9.483c.806-1.95,1.686-3.872,2.427-5.847a2.244,2.244,0,0,0-1.039-2.485,2.514,2.514,0,0,0-2.819.029,2.243,2.243,0,0,0-.976,2.5C1872.551,5656.451,1873.415,5658.361,1874.215,5660.295Z" fill="#343a40"/>
          </g>
          <g id="Group_94" data-name="Group 94">
            <circle id="Ellipse_4" data-name="Ellipse 4" cx="1.575" cy="1.575" r="1.575" transform="translate(1872.645 5652.389)" fill="#343a40"/>
          </g>
        </g>
        <g id="Group_96" data-name="Group 96">
          <path id="Path_58" data-name="Path 58" d="M1869.538,5671.793a.362.362,0,0,1-.36-.362,3.577,3.577,0,0,1,.209-.777.36.36,0,0,1,.411-.59.651.651,0,0,1,.324.552.616.616,0,0,1-.028.184l-.008.029a.474.474,0,0,1,.075.2.36.36,0,0,1-.22.384l-.035.081A.4.4,0,0,1,1869.538,5671.793Zm-.133-1.2Zm-1.483-.26-.042,0-.429-.048c-.486-.054-.945-.1-1.317-.18a.36.36,0,1,1,.144-.705c.34.069.783.118,1.252.17l.434.049a.36.36,0,0,1-.042.717Zm-1.907-1.34a.359.359,0,0,1-.274-.593,4.263,4.263,0,0,1,1.479-1.145.36.36,0,0,1,.3.656,3.589,3.589,0,0,0-1.227.956A.359.359,0,0,1,1866.015,5669Zm4.76-1.154h-.02l-.1-.006c-.26-.018-.521-.048-.773-.077-.293-.034-.57-.067-.848-.081a.36.36,0,0,1,.038-.719c.3.016.6.051.893.085.244.028.5.058.739.074l.087.006a.36.36,0,0,1-.019.719Zm1.69-.268a.36.36,0,0,1-.153-.686,1.5,1.5,0,0,0,.587-.467,1.7,1.7,0,0,0,.269-.592.36.36,0,0,1,.7.186,2.433,2.433,0,0,1-.385.833,2.23,2.23,0,0,1-.863.692A.357.357,0,0,1,1872.465,5667.573Zm1.256-3.005h-.029a.36.36,0,0,1-.33-.388l.14-1.721a.36.36,0,0,1,.717.058l-.14,1.722A.359.359,0,0,1,1873.721,5664.568Z" fill="#343a40"/>
        </g>
        <g id="Group_97" data-name="Group 97">
          <path id="Path_59" data-name="Path 59" d="M1887.885,5679.727a5.842,5.842,0,0,1-1.4-.234.36.36,0,0,1,.182-.7,5.277,5.277,0,0,0,1.215.211.554.554,0,0,0,.212-.026.366.366,0,0,1,.488.142.354.354,0,0,1-.131.482A1.126,1.126,0,0,1,1887.885,5679.727Zm-2.957-.738a.358.358,0,0,1-.119-.02c-.5-.175-1.05-.381-1.633-.611a.36.36,0,1,1,.264-.669c.574.226,1.115.429,1.607.6a.36.36,0,0,1-.119.7Zm-3.22-1.263a.353.353,0,0,1-.141-.029c-.516-.219-1.052-.454-1.59-.7a.36.36,0,1,1,.295-.656c.534.241,1.065.473,1.577.691a.36.36,0,0,1-.141.691Zm-29.109-.381a.36.36,0,0,1-.223-.642c.021-.017.538-.425,1.4-1.049a.36.36,0,1,1,.421.583c-.849.614-1.372,1.027-1.377,1.031A.361.361,0,0,1,1852.6,5677.345Zm25.955-1.038a.367.367,0,0,1-.154-.034c-.522-.248-1.048-.5-1.562-.757a.36.36,0,1,1,.32-.644c.51.252,1.032.5,1.55.75a.36.36,0,0,1-.154.685Zm-23.148-1a.36.36,0,0,1-.2-.657c.484-.329.973-.651,1.454-.958a.36.36,0,0,1,.387.607c-.475.3-.958.621-1.436.946A.358.358,0,0,1,1855.406,5675.311Zm20.049-.539a.352.352,0,0,1-.165-.041c-.526-.273-1.042-.547-1.534-.816a.36.36,0,0,1,.346-.632c.487.267,1,.539,1.519.81a.36.36,0,0,1-.166.679Zm-17.131-1.319a.359.359,0,0,1-.183-.669c.516-.305,1.026-.593,1.518-.857a.36.36,0,0,1,.34.634c-.483.259-.985.543-1.492.842A.359.359,0,0,1,1858.324,5673.453Zm14.1-.344a.362.362,0,0,1-.181-.049c-.538-.314-1.039-.619-1.49-.906a.36.36,0,0,1,.387-.607c.443.283.936.583,1.465.892a.359.359,0,0,1-.181.67Zm-11.05-1.284a.36.36,0,0,1-.153-.686c.557-.262,1.1-.494,1.612-.692a.36.36,0,0,1,.259.672c-.5.191-1.023.417-1.565.672A.359.359,0,0,1,1861.373,5671.825Zm8.145-.591a.361.361,0,0,1-.215-.071c-.115-.086-.225-.17-.329-.252a2.8,2.8,0,0,0-1.049-.509.36.36,0,0,1,.182-.7,3.533,3.533,0,0,1,1.313.641c.1.078.2.158.313.239a.36.36,0,0,1-.215.649Zm-4.915-.631a.36.36,0,0,1-.092-.707,9.957,9.957,0,0,1,1.761-.318.36.36,0,1,1,.058.717,9.389,9.389,0,0,0-1.634.3A.358.358,0,0,1,1864.6,5670.6Z" fill="#343a40"/>
        </g>
      </g>
    </g>
    <g id="ListIntersiting-4" data-name="ListIntersiting" transform="translate(130 164)">
      <rect id="Rectangle_18-4" data-name="Rectangle 18" width="80" height="40" fill="#92d7ef" opacity="0.25"/>
      <g id="text-secondary2-4" data-name="text-secondary2" transform="translate(15 45)">
        <text id="Take_photos" data-name="Take photos" transform="translate(0 11)" fill="#343a40" font-size="10" font-family="Helvetica"><tspan x="0" y="0">Take photos</tspan></text>
      </g>
      <g id="Group_103" data-name="Group 103" transform="translate(-1941.522 -5506.84)">
        <path id="Path_63" data-name="Path 63" d="M1981.041,5536.277h-10.885a3.792,3.792,0,0,1-4.158-4.118c-.005-4.129.04-8.258-.02-12.387a3.659,3.659,0,0,1,3.941-3.937c1.276.069,2.558-.007,3.837.013.44.007.613-.144.746-.581a4.473,4.473,0,0,1,4.591-3.4c1.487-.014,2.982-.075,4.46.051a4.23,4.23,0,0,1,3.905,3.208c.165.535.385.751.963.733,1.33-.041,2.663-.027,3.993,0a3.469,3.469,0,0,1,3.636,3.651q.031,6.468,0,12.936a3.727,3.727,0,0,1-3.887,3.83C1988.455,5536.29,1984.748,5536.277,1981.041,5536.277ZM1981,5534.7c3.68,0,7.361.01,11.041,0a2.1,2.1,0,0,0,2.336-2.245q.024-6.468,0-12.935a1.86,1.86,0,0,0-2.074-2.09c-1.487-.02-2.975-.01-4.463-.013-1.431,0-1.448-.016-1.773-1.4a2.964,2.964,0,0,0-3.209-2.58c-1.1-.01-2.192,0-3.289,0-2.412,0-3.218.633-3.731,2.982a1.089,1.089,0,0,1-1.236,1c-1.54-.027-3.08-.011-4.62,0-1.749.013-2.414.669-2.417,2.415q-.01,6.155,0,12.308a2.248,2.248,0,0,0,2.546,2.553C1973.743,5534.71,1977.372,5534.7,1981,5534.7Z" fill="#343a40"/>
        <path id="Path_64" data-name="Path 64" d="M1987.337,5526.128a6.312,6.312,0,1,1-6.255-6.357A6.252,6.252,0,0,1,1987.337,5526.128Zm-11.053-.107a4.741,4.741,0,1,0,4.718-4.741A4.762,4.762,0,0,0,1976.284,5526.021Z" fill="#343a40"/>
        <path id="Path_65" data-name="Path 65" d="M1972.25,5520.516a1.17,1.17,0,0,1-1.12,1.165,1.153,1.153,0,0,1-1.112-1.084,1.135,1.135,0,0,1,1.069-1.2A1.149,1.149,0,0,1,1972.25,5520.516Z" fill="#343a40"/>
      </g>
    </g>
  </g>
</svg>
