<svg id="Layer_1" data-name="Layer 1" xmlns="http://www.w3.org/2000/svg" viewBox="0 0 497.5 274.79"><path d="M125.5,201.69c-6.1,0-10.2-1.3-12.5-4a14.93,14.93,0,0,1-3.4-10.3,50.68,50.68,0,0,1,2.4-13.9c1.6-5.4,3.3-10.6,5.1-15.5,2.3-6.6,5-14.3,8.3-23.2s6.7-18.2,10.4-27.9,7.5-19.3,11.3-28.7,7.6-18,11.2-25.6c-9.3.1-17.1.3-23.3.6s-11.9.7-16.9,1.1-10.4,1.2-16.4,2.3c.4-4.6,2.8-8.1,7.1-10.7s10.1-4.4,17.4-5.5a171.22,171.22,0,0,1,24.8-1.6c9.3,0,17.6.4,24.9,1.1s14.2,1.4,20.7,2.1,12.9,1.1,19.4,1.2a31.33,31.33,0,0,1-15.7,7.9,107.64,107.64,0,0,1-18.8,1.6c-1.5,0-3,0-4.6-.1s-3.2-.1-4.9-.1h-4.8c-4.3,10.8-9.3,24.4-14.8,40.8s-11.2,34.9-16.9,55.5q-2.85,10.65-5.1,19.2c-1.5,5.6-2.8,10.8-3.6,15.6a69.89,69.89,0,0,0-1.3,13.7v2.2A4.11,4.11,0,0,0,125.5,201.69Z" fill="#084a78"/><path d="M333.4,201.69c-6.1,0-10.2-1.3-12.5-4a14.93,14.93,0,0,1-3.4-10.3,50.68,50.68,0,0,1,2.4-13.9c1.6-5.4,3.3-10.6,5-15.5,2.3-6.6,5.1-14.3,8.3-23.2s6.7-18.2,10.4-27.9,7.5-19.2,11.3-28.7,7.6-18,11.2-25.7c-9.3.1-17.1.3-23.3.6s-11.9.6-16.9,1.1-10.4,1.2-16.4,2.3c.4-4.6,2.8-8.1,7.1-10.7s10.1-4.4,17.4-5.4a171.22,171.22,0,0,1,24.8-1.6c9.3,0,17.6.4,24.9,1.1s14.2,1.4,20.7,2.1,12.9,1.1,19.4,1.2a31.64,31.64,0,0,1-15.8,7.9,107.64,107.64,0,0,1-18.8,1.6c-1.5,0-3,0-4.6-.1s-3.2-.1-4.8-.1H375c-4.3,10.8-9.3,24.4-14.8,40.8s-11.2,34.9-16.9,55.5q-2.85,10.65-5.1,19.2c-1.5,5.6-2.8,10.8-3.6,15.6a69.89,69.89,0,0,0-1.3,13.7v2.2A8.13,8.13,0,0,0,333.4,201.69Z" fill="#084a78"/><path d="M232.5,158.59a1.76,1.76,0,0,0,.5-.4c2.6-3.5,5.4-6.7,7.4-10.6,1.5-2.9,2.8-6,4.2-8.9a82,82,0,0,1,6-10.8,30.91,30.91,0,0,1,8.6-8.3c3.1-2.1,6.4-4.1,9.7-5.9A152.79,152.79,0,0,0,285.6,103c2.7-2,5.4-4,8.2-5.9a15.09,15.09,0,0,1,2.8-1.5,1.77,1.77,0,0,1,2.3.8,1.88,1.88,0,0,1,.2.8,7.72,7.72,0,0,1-.2,1.5,34.11,34.11,0,0,1-3,6.4c-2.5,4-4.9,8.2-7.5,12.1-3.7,5.5-7.6,10.9-11.5,16.3A111.72,111.72,0,0,1,266.7,145a13.22,13.22,0,0,1-5.6,3.6,62.1,62.1,0,0,1-7.4,2c-1.8.4-3.8.4-5.6.7-2.4.4-4.9.9-7.3,1.2a5.19,5.19,0,0,0-3.5,2.1,36.23,36.23,0,0,0-7.6,17.2c-.7,4.6-1.3,9.3-1.8,13.9-.2,2.2-.2,4.4-.3,6.7-.1,2.8-.2,5.6-.2,8.4,0,1.1,0,2.2.1,3.3a6.53,6.53,0,0,1,0,1.4c-.1.5,0,1.1-.6,1.1-.3,0-.6-.6-.7-1.1a3.3,3.3,0,0,1,0-1.4c0-3.5,0-7,.1-10.4a144.1,144.1,0,0,1,3.7-29.2,37.18,37.18,0,0,0,1.4-7.4,3.81,3.81,0,0,1,.3-1c.9-3.5,2-7,2.8-10.5a28.22,28.22,0,0,0,.3-5.8c0-3.2-.1-6.3,0-9.5a44.38,44.38,0,0,0-1.3-9.6,7.74,7.74,0,0,0-3.2-4.7,26.7,26.7,0,0,1-9-10.7c-1.3-2.7-2.8-5.3-3.9-8.2a26.58,26.58,0,0,1-2.1-11.8c.2-3.1.8-6.1,1.1-9.2.5-4.6.9-9.2,1.4-13.8.2-1.9.5-3.8.7-5.7.3-2.8.4-5.6.9-8.4.5-3,1.3-5.9,2-8.8A3.51,3.51,0,0,1,222,38c.5-.9,1.3-1.1,2-.4a9,9,0,0,1,1.4,2,44.49,44.49,0,0,1,3.4,10.1c1.2,5.2,2.5,10.4,3.7,15.7.6,2.6.9,5.4,1.9,7.9,2.9,7.1,3.4,14.5,3,22.1-.2,3.1-.7,6.1-1,9.2-.3,2.8-.5,5.6-.8,8.4-.2,1.6-.4,3.1-.6,4.7a37.75,37.75,0,0,0,.4,7.5,54.59,54.59,0,0,1,.4,5.7c.1,2.6,0,5.2.1,7.9v.7c.8.2.9-.3,1.1-.8.9-2.5,1.6-5,2.6-7.5,1.4-3.6,2.9-7,4.3-10.6a163.77,163.77,0,0,1,10-22.2,2.84,2.84,0,0,0,.4-1.2,22.63,22.63,0,0,1,1.5-7.3c1.1-2.9,2.2-5.8,3.4-8.6a5,5,0,0,0,0-3.4c-1-3.3-2.2-6.7-3-10.1a31.7,31.7,0,0,1-.4-13.7c.9-4.1,1.9-8.2,3.2-12.2,2.3-7.2,4.4-14.5,6.6-21.8.6-2,1.3-4,2-6,1.2-3.5,2.4-7.1,3.7-10.6a9.19,9.19,0,0,1,1.6-2.7,1.44,1.44,0,0,1,2.7.4,20.69,20.69,0,0,1,1,4.3c.7,5.5,1.2,11,1.4,16.5.2,5,.4,9.9.6,14.9.1,2.2.3,4.4.3,6.6-.1,1.2-.2,2.5-.4,3.7,0,.2,0,.5.1.5a.64.64,0,0,0,.6,0,2.65,2.65,0,0,0,.6-.5l7.4-7.6.9-.9c4.5-4.5,9-9,13.1-13.9a33,33,0,0,1,8.4-6.9c.6-.4,1.2-.9,2-.4a1.92,1.92,0,0,1,.6,2,11.36,11.36,0,0,1-.6,2.5,210.69,210.69,0,0,1-9.9,21.6c-2.8,5.1-6,10-8.7,15.1a81.43,81.43,0,0,1-10.2,14.4,94.94,94.94,0,0,1-9.7,9.3c-4.7,4.1-9.4,8.2-14.4,11.9a13.37,13.37,0,0,0-3.2,3.9,72.57,72.57,0,0,0-5.4,10.8c-3.4,8.1-6.9,16.1-9.9,24.3a168.94,168.94,0,0,0-6.4,21.3c-.2,1.1-.6,2.2-.9,3.3a4.1,4.1,0,0,0-.1,1.1Zm37-101.7a3.74,3.74,0,0,0,2.2-3.1,100.13,100.13,0,0,0,1.6-16.4c0-2.1-.1-4.2-.1-6.3a3.19,3.19,0,0,1,.3-1.4h.3a1.45,1.45,0,0,1,.2.7c.1,2.4.2,4.7.3,7.1a81,81,0,0,1-1,12c-.1.9-.2,1.8-.3,2.6,0,.2.2.4.3.7.2-.1.5-.1.6-.3a4.33,4.33,0,0,0,.5-1.2,56.87,56.87,0,0,0,1.2-10v-.5a1,1,0,0,1,.5-.4c.1,0,.3.2.4.3a6.75,6.75,0,0,1,.2,1.4c-.2,2.1-.5,4.1-.7,6.2V50h.3c.4-1.9.8-3.8,1.1-5.8a30,30,0,0,0-.1-6.7c-.3-3.5-.3-7-.4-10.6a148.66,148.66,0,0,0-1.5-21.1l-.6-3.6c-.1-.4-.2-1-.8-1a1.21,1.21,0,0,0-1.1.8,2.38,2.38,0,0,0-.6,1.1c-1,2.9-2.1,5.7-3,8.6-.4,1.1-.5,2.3-.9,3.4-.9,3-1.9,5.9-2.8,8.8-2.1,6.9-4.3,13.7-6.4,20.6a67,67,0,0,0-2.6,11.6,34.14,34.14,0,0,0,.4,10.1,59.19,59.19,0,0,0,2.7,10,3,3,0,0,0,.5.7,2.87,2.87,0,0,0,.8-3.7c-.4-1.2-.8-2.5-1.1-3.7-.7-2.6-.5-5.3-.6-8,0-.2.2-.4.3-.7h.2a8.33,8.33,0,0,1,.4,1.5c.2,1.8.2,3.6.5,5.4a33.38,33.38,0,0,0,1,4.3c.1.2.4.4.6.6l.5-.5a5.86,5.86,0,0,0,.5-3.9,48.93,48.93,0,0,1-.6-14.3,37.35,37.35,0,0,1,.9-4.6c.1-.4.2-.7.8-.5a1.7,1.7,0,0,1-.1.7,63,63,0,0,0-.8,14.4c.2,1.2.4,2.4.7,3.6a5,5,0,0,0,1.3-3.7c-.1-3.2-.2-6.5-.3-9.7,0-1.2.1-2.5.1-3.7a4.88,4.88,0,0,1,.3-.7h.3a3.55,3.55,0,0,1,.2,1c0,.9-.1,1.8-.1,2.7,0,2.5,0,5.1.1,7.6a6.47,6.47,0,0,0,.4,1.3h.3a3.55,3.55,0,0,0,.2-1c.2-1.9.3-3.7.5-5.6a147.71,147.71,0,0,1,1.8-16.3,5.45,5.45,0,0,1,1.3-3c-1.1,7.5-1.8,15.1-2.2,22.8a7,7,0,0,0,1.1-2.3Zm-39,49.5,1.2,1.1a4.12,4.12,0,0,0,.3-.8c-.3-2.3-.7-4.7-1.1-7a78.68,78.68,0,0,0-1.7-9.7v-.9c.2.3.4.4.4.6a4.28,4.28,0,0,0,.6,1.7l1.8,9.9c.1.6.3,1.2.4,1.8l.7-.6a4.35,4.35,0,0,1,.4.7,4.88,4.88,0,0,0,.3.7h.3a9.85,9.85,0,0,0,.2-1.7c.1-1.7,0-3.4.1-5a44.37,44.37,0,0,0-1-12.1c-.4-1.7-.7-3.4-1.1-5.2h0a6.47,6.47,0,0,1,.8.9,49.86,49.86,0,0,1,1.9,8.7c.2,1.2.4,2.4.6,3.7a.76.76,0,0,0,.2-.4.37.37,0,0,1,.1-.3,42.78,42.78,0,0,0-1-12.4c-.7-2.6-1.7-5.1-2.3-7.6-1.5-6-2.8-12.1-4.2-18.2a88.07,88.07,0,0,0-3.3-12.2,17.07,17.07,0,0,0-1.4-2.7c-.6-.9-1.1-.8-1.4.2-.3.8-.5,1.6-.8,2.5-1.6,7-2,14.1-2.9,21.2-.1,1,.1,2,0,2.9-.2,2-.5,3.9-.8,5.9-.4,2.9-.8,5.9-1.1,8.8a33.53,33.53,0,0,0,.1,10,34.6,34.6,0,0,0,4.3,11.6,9,9,0,0,0,.9,1l.5-1c.9.7.9,2.1,2.1,2.6-.4-1.2-.8-2.2-1.1-3.3a60.47,60.47,0,0,1-2.1-6.9c-.6-3.1-.9-6.3-1.3-9.4a7.39,7.39,0,0,1,.3-3.6,2.51,2.51,0,0,1,.4.7c.2,1.7.3,3.4.5,5.1a56.87,56.87,0,0,0,1.3,8.1,69,69,0,0,0,7.9,18.3c.2.3.4.5.6.8a1.61,1.61,0,0,0,.9.3v-1c0-.1-.1-.2-.1-.3-.7-1.5-1.5-3-2.2-4.5-1-2.2-1.8-4.5-2.7-6.8-.1-.4-.2-.7.4-.9,1.4,2.9,2.1,6.2,4.4,8.6a9.36,9.36,0,0,0-.4-1.6,4.14,4.14,0,0,1-.9-2.3Zm24.5,37.7h0c-.1.1-.2.3-.3.3-.7.1-.6.6-.6,1.1l2.1-.5.1.3c-.8.4-1.5.8-2.2,1.2s-1.4.5-1.3,1.6a25.34,25.34,0,0,0,3.8-.7,33.11,33.11,0,0,0,9.6-5.6l-.2,1.4a2.09,2.09,0,0,0,.6-.4c2.7-3,5.7-5.7,8.1-8.9,7.8-10.2,15.4-20.6,21.6-31.8a17.66,17.66,0,0,0,1.5-4.2c.2-.9-.1-1.2-1-1a3.48,3.48,0,0,0-1.5.7l-4.5,3.3c-4.5,3.1-9,6.4-13.7,9.3-5.2,3.3-10.6,6.3-15.8,9.6a30.16,30.16,0,0,0-8.6,7.7,67.07,67.07,0,0,0-6.9,11.9c-1.5,3-2.9,5.9-4.3,8.9l-.9,2.1v.6c.2,0,.5,0,.6-.1a1.56,1.56,0,0,0,.6-.8c1.8-3,3.6-6,5.3-9a64.36,64.36,0,0,1,5.9-8.8c.5-.6.5-.6,1.1-.4-1.7,2.6-3.5,5.2-5.2,7.8s-3.1,5.4-4.7,8.1c.5.3.8.1,1-.4a6.25,6.25,0,0,1,1.3-2l5.7-5.4a168,168,0,0,0,13.8-14.2,4.7,4.7,0,0,1,.9-.6l.2.2a2.51,2.51,0,0,1-.4.7c-.3.4-.7.8-1,1.2-2.1,2.3-4.1,4.7-6.3,6.8-3.1,3.1-6.4,6.1-9.6,9.1l-.9,1.2,1.4-.2h0a16,16,0,0,1-5.4,3.8l.2.7a4.87,4.87,0,0,0,1.1-.4c2.2-1.2,4.4-2.4,6.5-3.6a14.58,14.58,0,0,1,1.9-.7C254.8,143.89,254.9,144,255,144.09Zm18-64.7.3.3,1.2-.9a72.59,72.59,0,0,0,14.3-16.5c1.4-2.2,2.6-4.6,3.9-6.9,2.8-4.7,5.8-9.3,8.3-14.1,3-5.9,5.7-12,8.4-18a24,24,0,0,0,1.2-3.8,1,1,0,0,0-.3-1,1.35,1.35,0,0,0-.9,0c-.4.2-.7.4-1.1.6a36.85,36.85,0,0,0-8.7,8,65.21,65.21,0,0,1-8,8.6,26.82,26.82,0,0,0-2.8,3,4.62,4.62,0,0,1-.7.7l-6.9,6.9c-1.4,1.5-2.8,3-4.1,4.5-2.4,2.7-4.9,5.2-7.2,8a33.5,33.5,0,0,0-4.9,9.6c-.7,1.8-1.3,3.6-2,5.4.7-.2.6-1.2,1.7-1.2l-2.9,6.8.2.1c1.1-.8.7-2.8,2.5-3.2-1,1.8-1.9,3.5-2.7,5.3-1.4,2.8-2.7,5.6-4,8.4a5.25,5.25,0,0,1-1.9,2.5,1.36,1.36,0,0,0-.5,1.9c.1.1.1.2.2.3a10.49,10.49,0,0,0,3-3.9c1-1.8,1.8-3.7,2.8-5.5a182.69,182.69,0,0,1,11.3-17.7l2.4-3.3a3,3,0,0,1,2.1-1.4A159.74,159.74,0,0,0,259.6,91a2.07,2.07,0,0,0,1-.6l1.5-1.8c.5-.6,1.4-1.2,2-1.8a1.61,1.61,0,0,0,.6-1.3,1.55,1.55,0,0,1,.5-1.4c.4-.4.8-1,1.2-1.4l.8-.9.2.1-.2,1.7a79.41,79.41,0,0,0,8.7-8.7v.5a7.79,7.79,0,0,1-2.1,3A11.49,11.49,0,0,0,273,79.39Zm-7.3,64.1-.2-.2-.6.3a32.07,32.07,0,0,1-3.1,1.9,20,20,0,0,1-2.6,1,.54.54,0,0,0-.4.3,2,2,0,0,0-.1.8,2.77,2.77,0,0,0,.9.1,11,11,0,0,0,4.3-2.2c.6-.7,1.2-1.4,1.8-2Zm-11.9,2c-.6-.1-5.4,2.5-6,3.4a3.55,3.55,0,0,0,1-.2c1.4-.6,2.7-1.2,4-1.8.4-.4,1.2-.6,1-1.4Zm2.6,3,2.3-.8c-1.2-.6-1.4-.6-2.3.8Zm-31.8-40.6-.2.2c.2.8.4,1.1,1.3,1.1Z" fill="#084a78"/><path d="M38.1,236.69c-3.5.2-4.8,1.1-4.9,3.7-.1,1.3-.2,3.6-.2,8.7v6c0,5.7-.7,10-3.9,13.4-2.6,2.7-6.4,3.6-10.2,3.6-3.2,0-6.7-.7-9.1-2.6-3.3-2.6-4.9-6.4-4.9-12.9v-14.2c0-5-.4-5.3-4.9-5.7v-1.6H14.6v1.6c-4.4.3-4.9.7-4.9,5.7v13.9c0,8.1,3.8,12.6,10.5,12.6,7.9,0,10.4-4.9,10.4-14.1v-5.7c0-5.1-.2-7.2-.3-8.7-.2-2.5-1.4-3.4-5.6-3.7v-1.6H38v1.6Z" fill="#084a78"/><path d="M45.4,271.29v-1.6c4.6-.5,5-.7,5-5.4v-22.1c0-4.8-.4-5-5-5.5v-1.6H60.3v1.6c-4.6.5-5.1.7-5.1,5.5v22.1c0,4.8.4,4.9,5.1,5.4v1.6Z" fill="#084a78"/><path d="M72.5,274.79H69.4l14.8-40.7h3.2Z" fill="#084a78"/><path d="M133.5,236.69c-3.5.2-4.8,1.1-4.9,3.7-.1,1.3-.2,3.6-.2,8.7v6c0,5.7-.7,10-3.9,13.4-2.6,2.7-6.4,3.6-10.2,3.6-3.2,0-6.7-.7-9.1-2.6-3.3-2.6-4.9-6.4-4.9-12.9v-14.2c0-5-.4-5.3-4.9-5.7v-1.6H110v1.6c-4.4.3-4.9.7-4.9,5.7v13.9c0,8.1,3.8,12.6,10.5,12.6,7.9,0,10.4-4.9,10.4-14.1v-5.7c0-5.1-.2-7.2-.3-8.7-.2-2.5-1.4-3.4-5.6-3.7v-1.6h13.3v1.6Z" fill="#084a78"/><path d="M160.4,271.29v-1.6c3.4-.4,3.8-.9,2.8-2.8-1.3-2.2-3.7-6.3-7.2-11.8-2.6,4.1-5.1,7.9-6.9,11.2-1.3,2.3-.8,2.9,2.9,3.4v1.6H139.1v-1.6c3.3-.3,4.9-1.2,6.5-3.2,2.1-2.7,4.3-5.9,9.1-13.3-2.9-4.7-5.4-8.6-7.2-11.6-2.4-3.7-3.1-4.4-7.2-4.9v-1.6h13.8v1.6c-3.4.3-3.6.9-2.7,2.4,1.8,3.1,3.8,6.3,6.3,10.1,2.2-3.3,4.2-6.5,5.6-9.1,1.3-2.4.9-3.1-2.7-3.5V235h12.7v1.6c-4.2.6-5.2,1-7.6,4.4-1.8,2.6-2.9,4.2-6.8,10,3,4.7,5.8,9.3,8.4,13.4s3.8,4.8,7.8,5.2v1.6H160.4Z" fill="#084a78"/><path d="M212.5,235.09c7.8,0,12.8,1.6,16.2,4.8a16.29,16.29,0,0,1,4.7,11.9c0,6.5-2.7,11.8-6.9,15s-9.6,4.4-16.4,4.4h-13v-1.6c4.8-.4,5-.8,5-5.4V242c0-4.8-.7-5-5-5.4V235h15.4Zm-5.7,28.8c0,4.2,1.8,5.3,5.9,5.3,10,0,15.1-6.8,15.1-16.6,0-6.1-2.1-10.7-6.4-13.3-2.6-1.6-5.8-2.2-9.5-2.2-2.5,0-3.8.3-4.4.8-.5.3-.7.9-.7,3.1v22.9Z" fill="#084a78"/><path d="M271.8,262.39c-.3,1.4-1.8,7.2-2.4,8.8h-27v-1.6c5.2-.4,5.6-.9,5.6-5.4v-22c0-4.9-.6-5.2-4.8-5.6V235h17c5.2,0,7.4-.1,8.1-.1.1,1.4.3,5.6.5,8.5l-1.7.3a17.26,17.26,0,0,0-1.7-4.2c-.9-1.8-2.2-2.2-5.5-2.2h-5.3c-1.7,0-1.8.2-1.8,1.8v12.3H259c4.2,0,4.4-.8,5.1-4.6h1.7v11.4h-1.7c-.7-4-1.2-4.6-5.2-4.6h-6.1v11.2c0,3.9,1.2,4.2,4,4.3H262c3.4,0,3.9-.5,5.2-1.9a22.86,22.86,0,0,0,3-5.1Z" fill="#084a78"/><path d="M299.1,243.59c-.9-3.7-2.5-7.3-7.7-7.3-4.3,0-5.8,3.2-5.8,6.1,0,3.8,2.4,5.8,7.1,8.2,6.7,3.4,9.6,6,9.6,11.3,0,5.8-5.1,10.3-12.2,10.3a23.23,23.23,0,0,1-8.5-1.8c-.4-1.6-1.1-5.3-1.5-8.3l1.7-.4c1.1,3.7,3.6,8.6,9.3,8.6a6.09,6.09,0,0,0,6.4-6.4c0-4.3-2.3-6-7.2-8.7-5.8-3.2-9.1-5.8-9.1-11,0-4.9,4.1-9.6,11.4-9.6a29.49,29.49,0,0,1,7.3,1.1c.2,2,.4,4.2.9,7.8Z" fill="#084a78"/><path d="M311.1,271.29v-1.6c4.6-.5,5-.7,5-5.4v-22.1c0-4.8-.4-5-5-5.5v-1.6H326v1.6c-4.6.5-5.1.7-5.1,5.5v22.1c0,4.8.4,4.9,5.1,5.4v1.6Z" fill="#084a78"/><path d="M371.7,256.09c-3.4.4-3.7.8-3.7,4.1v4.7a42.17,42.17,0,0,0,.3,5.3c-3.4.8-7.9,2-12.6,2-12.6,0-20.3-7.8-20.3-19,0-11.7,9.6-18.7,20.7-18.7a56,56,0,0,1,11.6,1.4c.1,2.1.4,5.4.8,8.9l-1.7.3c-1.3-4.7-2.9-6.7-6.4-7.9a21.08,21.08,0,0,0-5.2-.7c-8.5,0-14,5.8-14,16,0,8.8,4.6,17.6,15.3,17.6a11.88,11.88,0,0,0,4.7-.9c1.2-.7,1.9-1.3,1.9-3.6V261c0-4.1-.4-4.5-5.8-4.9v-1.6h14.3v1.6Z" fill="#084a78"/><path d="M418.6,236.69c-3.6.4-4.7.9-4.9,3.5-.1,1.8-.2,4.1-.2,9.3v22.3h-2.1l-23.8-29.1v13.9c0,5,.2,7.5.3,9.1.1,2.8,1.5,3.7,5.5,4v1.6H379.9v-1.6c3.4-.3,4.8-1.1,5-3.8a89,89,0,0,0,.3-9.3v-14.2a5,5,0,0,0-1.1-3.7c-1.1-1.4-2.2-1.7-4.9-2v-1.6h8.3l23.6,28v-13.6a81.48,81.48,0,0,0-.3-9.2c-.2-2.5-1.4-3.3-5.9-3.6v-1.6h13.7Z" fill="#084a78"/><path d="M456.1,262.39c-.3,1.4-1.8,7.2-2.4,8.8h-27v-1.6c5.2-.4,5.6-.9,5.6-5.4v-22c0-4.9-.6-5.2-4.8-5.6V235h17c5.2,0,7.4-.1,8.1-.1.1,1.4.3,5.6.5,8.5l-1.7.3a17.26,17.26,0,0,0-1.7-4.2c-.9-1.8-2.2-2.2-5.5-2.2h-5.3c-1.7,0-1.8.2-1.8,1.8v12.3h6.2c4.2,0,4.4-.8,5.1-4.6h1.7v11.4h-1.7c-.7-4-1.2-4.6-5.2-4.6h-6.1v11.2c0,3.9,1.2,4.2,4,4.3h5.2c3.4,0,3.9-.5,5.2-1.9a22.86,22.86,0,0,0,3-5.1Z" fill="#084a78"/><path d="M497.1,271.69c-.7,0-1.3-.1-2.1-.1-4.1-.3-6.2-1.3-8.7-4.8a100.72,100.72,0,0,1-5.8-9.2c-1.1-1.8-1.8-2.1-4.7-2.1h-1.9v8.7c0,4.7.6,5,5.1,5.4v1.6H464.2v-1.6c4.6-.5,5-.7,5-5.4V242c0-4.7-.6-4.9-5-5.4V235h14.2c4.1,0,6.8.5,8.9,1.9a8.15,8.15,0,0,1,3.8,7.3c0,4.8-3.1,7.8-7.2,9.6,1,1.7,3.4,5.4,5.1,7.9a59.2,59.2,0,0,0,4.4,5.7,8.71,8.71,0,0,0,4.1,2.6Zm-20.5-18c2.9,0,4.7-.4,6.1-1.6,2.2-1.6,3.1-3.8,3.1-6.8,0-5.9-3.9-8.1-8.2-8.1-1.6,0-2.6.2-2.9.6-.5.4-.7.9-.7,2.4v13.6h2.6Z" fill="#084a78"/></svg>